<svg width="74" height="17" viewBox="0 0 74 17" fill="none" xmlns="http://www.w3.org/2000/svg">
<mask id="path-1-inside-1_4_48" fill="white">
<path d="M32.9596 3.824C33.1138 3.74562 33.2864 3.72518 33.4571 3.71846C33.6376 3.71135 33.8186 3.71244 33.9991 3.71021C34.3776 3.70554 34.7561 3.70087 35.1346 3.6962C35.9006 3.68676 36.6666 3.6773 37.4327 3.66785C37.8202 3.66307 38.2077 3.65829 38.5952 3.65351C38.9593 3.64902 39.3286 3.62616 39.6922 3.64679C39.8621 3.65643 40.0293 3.69004 40.176 3.77983C40.3169 3.86607 40.431 3.98856 40.5425 4.10874C40.7993 4.38563 41.0555 4.66322 41.3119 4.94045C41.8329 5.50361 42.3539 6.06676 42.8749 6.62991C43.0067 6.77236 43.1384 6.91481 43.2702 7.05725C43.3304 7.12236 43.3926 7.18622 43.4505 7.25343C43.4976 7.3081 43.5498 7.37571 43.5519 7.45126C43.5539 7.525 43.5046 7.5901 43.4635 7.64706C43.4065 7.72614 43.3477 7.80398 43.2898 7.8824C43.1773 8.0347 43.0648 8.187 42.9523 8.3393C42.0417 9.57222 41.1311 10.8051 40.2205 12.0381C39.3098 13.271 38.3992 14.5039 37.4886 15.7368C37.3761 15.8891 37.2636 16.0414 37.1511 16.1937C37.1938 16.1882 37.2364 16.1827 37.2791 16.1773C36.6014 15.3672 35.9237 14.5572 35.246 13.7472C34.5713 12.9406 33.8965 12.1341 33.2217 11.3275C32.5469 10.5209 31.8721 9.71438 31.1973 8.90782C31.0264 8.70358 30.8556 8.49935 30.6847 8.29511C30.6007 8.19472 30.5167 8.09434 30.4327 7.99395C30.3571 7.90356 30.2712 7.81558 30.2094 7.71478C30.1488 7.61584 30.1532 7.52815 30.2128 7.42989C30.2757 7.32618 30.3543 7.23044 30.4257 7.13255C30.5824 6.91779 30.739 6.70303 30.8957 6.48826C31.2037 6.06601 31.5117 5.64378 31.8197 5.22154C31.9763 5.00678 32.133 4.79202 32.2896 4.57725C32.4269 4.38898 32.5562 4.18811 32.7158 4.01755C32.7878 3.94055 32.8668 3.87456 32.9596 3.824C33.0517 3.77381 32.9695 3.63307 32.8773 3.68331C32.6846 3.78834 32.5445 3.95654 32.4155 4.13001C32.2584 4.34126 32.1049 4.55531 31.9498 4.768C31.6338 5.20116 31.3179 5.63433 31.0019 6.06749C30.8426 6.28589 30.6833 6.50429 30.524 6.72269C30.447 6.82826 30.37 6.93381 30.293 7.03938C30.2189 7.14092 30.1375 7.24017 30.0721 7.34764C30.0158 7.44027 29.9846 7.54431 30.0077 7.65247C30.03 7.7575 30.0983 7.84544 30.1649 7.92656C30.3354 8.13438 30.5099 8.3391 30.6824 8.54531C31.3746 9.37264 32.0668 10.2 32.7589 11.0273C33.4511 11.8546 34.1432 12.682 34.8354 13.5093C35.5247 14.3332 36.2139 15.157 36.9032 15.9809C36.9901 16.0847 37.077 16.1886 37.1639 16.2924C37.2008 16.3366 37.2636 16.3142 37.2918 16.2759C38.2239 15.014 39.1559 13.7521 40.088 12.4902C41.02 11.2282 41.952 9.9663 42.8841 8.70437C43.1171 8.38889 43.3504 8.07361 43.5831 7.75792C43.6773 7.6302 43.7519 7.49153 43.6906 7.33139C43.6305 7.17443 43.4877 7.0526 43.3762 6.93209C42.843 6.35568 42.3097 5.77928 41.7765 5.20287C41.5129 4.91798 41.2494 4.63309 40.9858 4.3482C40.8557 4.20752 40.727 4.06526 40.5949 3.92645C40.4806 3.80637 40.3566 3.68915 40.209 3.6109C39.8986 3.44634 39.5292 3.47905 39.19 3.48323C38.7934 3.48812 38.3969 3.49301 38.0004 3.4979C37.2164 3.50757 36.4323 3.51725 35.6483 3.52692C35.2608 3.5317 34.8733 3.53648 34.4858 3.54126C34.2875 3.54371 34.0893 3.54616 33.891 3.5486C33.7078 3.55087 33.523 3.54687 33.3403 3.56252C33.1786 3.57637 33.0228 3.60941 32.8773 3.68331C32.7838 3.73083 32.8662 3.87144 32.9596 3.824Z"/>
</mask>
<path d="M32.9596 3.824C33.1138 3.74562 33.2864 3.72518 33.4571 3.71846C33.6376 3.71135 33.8186 3.71244 33.9991 3.71021C34.3776 3.70554 34.7561 3.70087 35.1346 3.6962C35.9006 3.68676 36.6666 3.6773 37.4327 3.66785C37.8202 3.66307 38.2077 3.65829 38.5952 3.65351C38.9593 3.64902 39.3286 3.62616 39.6922 3.64679C39.8621 3.65643 40.0293 3.69004 40.176 3.77983C40.3169 3.86607 40.431 3.98856 40.5425 4.10874C40.7993 4.38563 41.0555 4.66322 41.3119 4.94045C41.8329 5.50361 42.3539 6.06676 42.8749 6.62991C43.0067 6.77236 43.1384 6.91481 43.2702 7.05725C43.3304 7.12236 43.3926 7.18622 43.4505 7.25343C43.4976 7.3081 43.5498 7.37571 43.5519 7.45126C43.5539 7.525 43.5046 7.5901 43.4635 7.64706C43.4065 7.72614 43.3477 7.80398 43.2898 7.8824C43.1773 8.0347 43.0648 8.187 42.9523 8.3393C42.0417 9.57222 41.1311 10.8051 40.2205 12.0381C39.3098 13.271 38.3992 14.5039 37.4886 15.7368C37.3761 15.8891 37.2636 16.0414 37.1511 16.1937C37.1938 16.1882 37.2364 16.1827 37.2791 16.1773C36.6014 15.3672 35.9237 14.5572 35.246 13.7472C34.5713 12.9406 33.8965 12.1341 33.2217 11.3275C32.5469 10.5209 31.8721 9.71438 31.1973 8.90782C31.0264 8.70358 30.8556 8.49935 30.6847 8.29511C30.6007 8.19472 30.5167 8.09434 30.4327 7.99395C30.3571 7.90356 30.2712 7.81558 30.2094 7.71478C30.1488 7.61584 30.1532 7.52815 30.2128 7.42989C30.2757 7.32618 30.3543 7.23044 30.4257 7.13255C30.5824 6.91779 30.739 6.70303 30.8957 6.48826C31.2037 6.06601 31.5117 5.64378 31.8197 5.22154C31.9763 5.00678 32.133 4.79202 32.2896 4.57725C32.4269 4.38898 32.5562 4.18811 32.7158 4.01755C32.7878 3.94055 32.8668 3.87456 32.9596 3.824C33.0517 3.77381 32.9695 3.63307 32.8773 3.68331C32.6846 3.78834 32.5445 3.95654 32.4155 4.13001C32.2584 4.34126 32.1049 4.55531 31.9498 4.768C31.6338 5.20116 31.3179 5.63433 31.0019 6.06749C30.8426 6.28589 30.6833 6.50429 30.524 6.72269C30.447 6.82826 30.37 6.93381 30.293 7.03938C30.2189 7.14092 30.1375 7.24017 30.0721 7.34764C30.0158 7.44027 29.9846 7.54431 30.0077 7.65247C30.03 7.7575 30.0983 7.84544 30.1649 7.92656C30.3354 8.13438 30.5099 8.3391 30.6824 8.54531C31.3746 9.37264 32.0668 10.2 32.7589 11.0273C33.4511 11.8546 34.1432 12.682 34.8354 13.5093C35.5247 14.3332 36.2139 15.157 36.9032 15.9809C36.9901 16.0847 37.077 16.1886 37.1639 16.2924C37.2008 16.3366 37.2636 16.3142 37.2918 16.2759C38.2239 15.014 39.1559 13.7521 40.088 12.4902C41.02 11.2282 41.952 9.9663 42.8841 8.70437C43.1171 8.38889 43.3504 8.07361 43.5831 7.75792C43.6773 7.6302 43.7519 7.49153 43.6906 7.33139C43.6305 7.17443 43.4877 7.0526 43.3762 6.93209C42.843 6.35568 42.3097 5.77928 41.7765 5.20287C41.5129 4.91798 41.2494 4.63309 40.9858 4.3482C40.8557 4.20752 40.727 4.06526 40.5949 3.92645C40.4806 3.80637 40.3566 3.68915 40.209 3.6109C39.8986 3.44634 39.5292 3.47905 39.19 3.48323C38.7934 3.48812 38.3969 3.49301 38.0004 3.4979C37.2164 3.50757 36.4323 3.51725 35.6483 3.52692C35.2608 3.5317 34.8733 3.53648 34.4858 3.54126C34.2875 3.54371 34.0893 3.54616 33.891 3.5486C33.7078 3.55087 33.523 3.54687 33.3403 3.56252C33.1786 3.57637 33.0228 3.60941 32.8773 3.68331C32.7838 3.73083 32.8662 3.87144 32.9596 3.824Z" fill="#F6C200"/>
<path d="M33.4571 3.71846L33.4178 2.71923L33.4178 2.71923L33.4571 3.71846ZM33.9991 3.71021L34.0115 4.71013L34.0115 4.71013L33.9991 3.71021ZM35.1346 3.6962L35.1469 4.69613L35.147 4.69613L35.1346 3.6962ZM37.4327 3.66785L37.445 4.66778L37.445 4.66778L37.4327 3.66785ZM38.5952 3.65351L38.5828 2.65359L38.5828 2.65359L38.5952 3.65351ZM39.6922 3.64679L39.7489 2.6484L39.7489 2.6484L39.6922 3.64679ZM40.176 3.77983L39.6539 4.63272L39.6539 4.63273L40.176 3.77983ZM40.5425 4.10874L41.2756 3.42866L41.2756 3.42865L40.5425 4.10874ZM41.3119 4.94045L42.046 4.26136L42.046 4.26136L41.3119 4.94045ZM42.8749 6.62991L42.1408 7.30901L42.1408 7.30902L42.8749 6.62991ZM43.2702 7.05725L42.5362 7.73635L42.5362 7.73636L43.2702 7.05725ZM43.4505 7.25343L42.6929 7.90613L42.6929 7.90616L43.4505 7.25343ZM43.5519 7.45126L44.5515 7.42376L44.5515 7.42374L43.5519 7.45126ZM43.4635 7.64706L42.6524 7.06218L42.6524 7.06219L43.4635 7.64706ZM43.2898 7.8824L42.4854 7.28827L42.4854 7.28829L43.2898 7.8824ZM42.9523 8.3393L43.7567 8.93341L43.7567 8.93341L42.9523 8.3393ZM40.2205 12.0381L41.0248 12.6322L41.0249 12.6322L40.2205 12.0381ZM37.4886 15.7368L36.6842 15.1427L36.6842 15.1427L37.4886 15.7368ZM37.1511 16.1937L36.3468 15.5996L34.9542 17.485L37.2789 17.1855L37.1511 16.1937ZM37.2791 16.1773L37.4069 17.1691L39.2175 16.9358L38.0461 15.5356L37.2791 16.1773ZM35.246 13.7472L34.4791 14.3889L34.4791 14.3889L35.246 13.7472ZM33.2217 11.3275L32.4547 11.9692L32.4547 11.9692L33.2217 11.3275ZM31.1973 8.90782L30.4303 9.54949L30.4303 9.5495L31.1973 8.90782ZM30.6847 8.29511L29.9177 8.93676L29.9177 8.93678L30.6847 8.29511ZM30.4327 7.99395L31.1997 7.3523L31.1997 7.35228L30.4327 7.99395ZM30.2094 7.71478L29.3567 8.23716L29.3568 8.23725L30.2094 7.71478ZM30.2128 7.42989L31.068 7.94826L31.068 7.94824L30.2128 7.42989ZM30.4257 7.13255L29.6178 6.54325L29.6178 6.54328L30.4257 7.13255ZM30.8957 6.48826L30.0878 5.89896L30.0878 5.89898L30.8957 6.48826ZM31.8197 5.22154L32.6276 5.81085L32.6276 5.81084L31.8197 5.22154ZM32.2896 4.57725L31.4817 3.98795L31.4817 3.98797L32.2896 4.57725ZM32.7158 4.01755L33.446 4.7008L33.446 4.70076L32.7158 4.01755ZM32.8773 3.68331L33.3558 4.56141L33.3559 4.56138L32.8773 3.68331ZM32.4155 4.13001L31.6131 3.5332L31.6131 3.53323L32.4155 4.13001ZM31.9498 4.768L31.1419 4.17869L31.1419 4.1787L31.9498 4.768ZM31.0019 6.06749L30.194 5.47817L30.194 5.47817L31.0019 6.06749ZM30.524 6.72269L31.3319 7.31199L31.3319 7.31197L30.524 6.72269ZM30.293 7.03938L31.1009 7.62869L31.1009 7.62867L30.293 7.03938ZM30.0721 7.34764L29.2177 6.82804L29.2177 6.82806L30.0721 7.34764ZM30.0077 7.65247L30.9857 7.44402L30.9857 7.44392L30.0077 7.65247ZM30.1649 7.92656L29.3919 8.56098L29.3919 8.56099L30.1649 7.92656ZM30.6824 8.54531L31.4494 7.90364L31.4494 7.90364L30.6824 8.54531ZM32.7589 11.0273L33.5259 10.3856L33.5259 10.3856L32.7589 11.0273ZM34.8354 13.5093L35.6024 12.8676L35.6024 12.8676L34.8354 13.5093ZM36.9032 15.9809L36.1362 16.6226L36.1363 16.6226L36.9032 15.9809ZM37.1639 16.2924L37.9309 15.6508L37.9308 15.6507L37.1639 16.2924ZM37.2918 16.2759L38.0962 16.8701L38.0962 16.8701L37.2918 16.2759ZM42.8841 8.70437L42.0797 8.11026L42.0797 8.11026L42.8841 8.70437ZM43.5831 7.75792L42.7782 7.1645L42.7782 7.16452L43.5831 7.75792ZM43.6906 7.33139L44.6245 6.97402L44.6245 6.974L43.6906 7.33139ZM43.3762 6.93209L42.6422 7.61118L42.6422 7.61118L43.3762 6.93209ZM41.7765 5.20287L41.0424 5.88195L41.0424 5.88196L41.7765 5.20287ZM40.9858 4.3482L40.2518 5.02728L40.2518 5.0273L40.9858 4.3482ZM40.5949 3.92645L41.3192 3.23697L41.3192 3.23694L40.5949 3.92645ZM40.209 3.6109L39.7407 4.49445L39.7407 4.49446L40.209 3.6109ZM39.19 3.48323L39.1777 2.4833L39.1776 2.4833L39.19 3.48323ZM38.0004 3.4979L37.9881 2.49798L37.9881 2.49798L38.0004 3.4979ZM35.6483 3.52692L35.636 2.527L35.636 2.527L35.6483 3.52692ZM34.4858 3.54126L34.4981 4.54119L34.4981 4.54119L34.4858 3.54126ZM33.891 3.5486L33.8787 2.54868L33.8787 2.54868L33.891 3.5486ZM33.3403 3.56252L33.2549 2.56617L33.2549 2.56617L33.3403 3.56252ZM32.8773 3.68331L32.4243 2.79179L32.4243 2.79182L32.8773 3.68331ZM32.9596 3.824L33.4126 4.71551C33.3862 4.72892 33.373 4.72975 33.3869 4.72715C33.403 4.72413 33.4346 4.72012 33.4965 4.71768L33.4571 3.71846L33.4178 2.71923C33.2118 2.72735 32.8599 2.75294 32.5066 2.93248L32.9596 3.824ZM33.4571 3.71846L33.4965 4.71768C33.6592 4.71128 33.8061 4.71267 34.0115 4.71013L33.9991 3.71021L33.9868 2.71028C33.831 2.71221 33.616 2.71143 33.4178 2.71923L33.4571 3.71846ZM33.9991 3.71021L34.0115 4.71013C34.39 4.70546 34.7685 4.70079 35.1469 4.69613L35.1346 3.6962L35.1223 2.69628C34.7438 2.70094 34.3653 2.70561 33.9868 2.71028L33.9991 3.71021ZM35.1346 3.6962L35.147 4.69613C35.53 4.6914 35.913 4.68668 36.296 4.68195C36.679 4.67723 37.062 4.6725 37.445 4.66778L37.4327 3.66785L37.4203 2.66793C37.0373 2.67265 36.6543 2.67738 36.2713 2.6821C35.8883 2.68683 35.5053 2.69155 35.1223 2.69628L35.1346 3.6962ZM37.4327 3.66785L37.445 4.66778C37.6387 4.66538 37.8325 4.66299 38.0263 4.6606C38.22 4.65821 38.4138 4.65583 38.6075 4.65343L38.5952 3.65351L38.5828 2.65359C38.3891 2.65598 38.1953 2.65837 38.0016 2.66076C37.8078 2.66315 37.6141 2.66554 37.4203 2.66793L37.4327 3.66785ZM38.5952 3.65351L38.6075 4.65343C39.0397 4.6481 39.3167 4.6271 39.6356 4.64519L39.6922 3.64679L39.7489 2.6484C39.3405 2.62523 38.8788 2.64994 38.5828 2.65359L38.5952 3.65351ZM39.6922 3.64679L39.6356 4.64519C39.6547 4.64627 39.6689 4.64777 39.6791 4.6492C39.6892 4.65063 39.6941 4.65183 39.6948 4.65202C39.6955 4.65218 39.6915 4.6512 39.684 4.64814C39.6764 4.64503 39.666 4.64008 39.6539 4.63272L40.176 3.77983L40.6981 2.92694C40.3557 2.71731 40.0042 2.66288 39.7489 2.6484L39.6922 3.64679ZM40.176 3.77983L39.6539 4.63273C39.6482 4.62919 39.6572 4.63377 39.6856 4.66043C39.7167 4.6896 39.7504 4.72525 39.8094 4.78884L40.5425 4.10874L41.2756 3.42865C41.1796 3.32515 40.9756 3.09682 40.6981 2.92693L40.176 3.77983ZM40.5425 4.10874L39.8093 4.78882C40.0657 5.06514 40.3201 5.34091 40.5779 5.61954L41.3119 4.94045L42.046 4.26136C41.7908 3.98553 41.533 3.70613 41.2756 3.42866L40.5425 4.10874ZM41.3119 4.94045L40.5779 5.61954C41.0988 6.18269 41.6198 6.74585 42.1408 7.30901L42.8749 6.62991L43.6089 5.95082C43.0879 5.38767 42.567 4.82452 42.046 4.26136L41.3119 4.94045ZM42.8749 6.62991L42.1408 7.30902C42.2067 7.38023 42.2726 7.45144 42.3385 7.52266C42.4044 7.59388 42.4703 7.66512 42.5362 7.73635L43.2702 7.05725L44.0043 6.37814C43.9384 6.30694 43.8725 6.23572 43.8066 6.1645C43.7407 6.09328 43.6748 6.02204 43.6089 5.95081L42.8749 6.62991ZM43.2702 7.05725L42.5362 7.73636C42.6199 7.82681 42.65 7.85638 42.6929 7.90613L43.4505 7.25343L44.2081 6.60074C44.1352 6.51606 44.041 6.4179 44.0042 6.37813L43.2702 7.05725ZM43.4505 7.25343L42.6929 7.90616C42.7082 7.92392 42.6822 7.89653 42.6525 7.84528C42.6219 7.79245 42.5574 7.66367 42.5523 7.47878L43.5519 7.45126L44.5515 7.42374C44.5384 6.94731 44.2315 6.62787 44.2081 6.60071L43.4505 7.25343ZM43.5519 7.45126L42.5523 7.47875C42.5468 7.28114 42.6118 7.14113 42.6394 7.08881C42.6542 7.06082 42.6662 7.04325 42.6677 7.04102C42.6687 7.03946 42.6685 7.03979 42.6658 7.04358C42.662 7.04899 42.6602 7.05134 42.6524 7.06218L43.4635 7.64706L44.2747 8.23195C44.2803 8.22405 44.3513 8.13019 44.4083 8.02209C44.4703 7.90454 44.559 7.69511 44.5515 7.42376L43.5519 7.45126ZM43.4635 7.64706L42.6524 7.06219C42.5994 7.13569 42.5524 7.19762 42.4854 7.28827L43.2898 7.8824L44.0942 8.47652C44.1431 8.41033 44.2136 8.31659 44.2747 8.23194L43.4635 7.64706ZM43.2898 7.8824L42.4854 7.28829C42.4292 7.36444 42.3729 7.44059 42.3167 7.51674C42.2604 7.59289 42.2042 7.66904 42.1479 7.7452L42.9523 8.3393L43.7567 8.93341C43.813 8.85726 43.8692 8.78111 43.9254 8.70496C43.9817 8.62881 44.0379 8.55266 44.0942 8.4765L43.2898 7.8824ZM42.9523 8.3393L42.1479 7.74519C41.2373 8.97811 40.3267 10.211 39.4161 11.444L40.2205 12.0381L41.0249 12.6322C41.9355 11.3993 42.8461 10.1663 43.7567 8.93341L42.9523 8.3393ZM40.2205 12.0381L39.4161 11.444C38.5055 12.6769 37.5948 13.9098 36.6842 15.1427L37.4886 15.7368L38.293 16.3309C39.2036 15.098 40.1142 13.8651 41.0248 12.6322L40.2205 12.0381ZM37.4886 15.7368L36.6842 15.1427C36.628 15.2189 36.5717 15.295 36.5155 15.3712C36.4592 15.4473 36.403 15.5235 36.3468 15.5996L37.1511 16.1937L37.9555 16.7878C38.0118 16.7117 38.068 16.6355 38.1243 16.5594C38.1805 16.4832 38.2367 16.4071 38.293 16.3309L37.4886 15.7368ZM37.1511 16.1937L37.2789 17.1855C37.3002 17.1828 37.3216 17.18 37.3429 17.1773C37.3642 17.1745 37.3855 17.1718 37.4069 17.1691L37.2791 16.1773L37.1513 15.1854C37.13 15.1882 37.1087 15.1909 37.0874 15.1937C37.066 15.1964 37.0447 15.1992 37.0234 15.2019L37.1511 16.1937ZM37.2791 16.1773L38.0461 15.5356C37.3684 14.7256 36.6907 13.9155 36.013 13.1055L35.246 13.7472L34.4791 14.3889C35.1567 15.1989 35.8344 16.0089 36.5121 16.8189L37.2791 16.1773ZM35.246 13.7472L36.013 13.1055C35.3382 12.299 34.6635 11.4924 33.9887 10.6858L33.2217 11.3275L32.4547 11.9692C33.1295 12.7757 33.8043 13.5823 34.4791 14.3889L35.246 13.7472ZM33.2217 11.3275L33.9887 10.6858C33.3139 9.87928 32.6391 9.0727 31.9643 8.26614L31.1973 8.90782L30.4303 9.5495C31.1051 10.3561 31.7799 11.1626 32.4547 11.9692L33.2217 11.3275ZM31.1973 8.90782L31.9643 8.26615C31.8789 8.16403 31.7934 8.06191 31.708 7.95979C31.6226 7.85768 31.5371 7.75556 31.4517 7.65344L30.6847 8.29511L29.9177 8.93678C30.0032 9.0389 30.0886 9.14102 30.174 9.24314C30.2595 9.34526 30.3449 9.44737 30.4303 9.54949L31.1973 8.90782ZM30.6847 8.29511L31.4517 7.65346C31.4097 7.60325 31.3677 7.55304 31.3257 7.50285C31.2837 7.45265 31.2417 7.40247 31.1997 7.3523L30.4327 7.99395L29.6658 8.6356C29.7078 8.68581 29.7498 8.73602 29.7918 8.78621C29.8338 8.83641 29.8757 8.88658 29.9177 8.93676L30.6847 8.29511ZM30.4327 7.99395L31.1997 7.35228C31.1733 7.32064 31.1472 7.29077 31.1282 7.26904C31.1071 7.24485 31.0934 7.22911 31.0807 7.21404C31.055 7.18346 31.0547 7.18031 31.0621 7.1923L30.2094 7.71478L29.3568 8.23725C29.4698 8.42163 29.6589 8.62741 29.6658 8.63562L30.4327 7.99395ZM30.2094 7.71478L31.0621 7.19239C31.1089 7.26876 31.1697 7.40852 31.1658 7.59304C31.1621 7.77096 31.1 7.89536 31.068 7.94826L30.2128 7.42989L29.3576 6.91153C29.266 7.06268 29.172 7.28006 29.1663 7.55113C29.1605 7.82879 29.2493 8.06186 29.3567 8.23716L30.2094 7.71478ZM30.2128 7.42989L31.068 7.94824C31.1019 7.89228 31.1155 7.8839 31.2337 7.72182L30.4257 7.13255L29.6178 6.54328C29.5932 6.57698 29.4494 6.76009 29.3576 6.91155L30.2128 7.42989ZM30.4257 7.13255L31.2337 7.72185C31.3903 7.50712 31.547 7.29232 31.7036 7.07755L30.8957 6.48826L30.0878 5.89898C29.9311 6.11374 29.7745 6.32846 29.6178 6.54325L30.4257 7.13255ZM30.8957 6.48826L31.7036 7.07756C32.0116 6.65532 32.3196 6.23308 32.6276 5.81085L31.8197 5.22154L31.0117 4.63223C30.7038 5.05447 30.3958 5.47671 30.0878 5.89896L30.8957 6.48826ZM31.8197 5.22154L32.6276 5.81084C32.7842 5.59611 32.9409 5.38131 33.0975 5.16654L32.2896 4.57725L31.4817 3.98797C31.325 4.20273 31.1684 4.41745 31.0117 4.63224L31.8197 5.22154ZM32.2896 4.57725L33.0975 5.16655C33.2819 4.91371 33.342 4.81189 33.446 4.7008L32.7158 4.01755L31.9856 3.3343C31.7704 3.56432 31.5719 3.86425 31.4817 3.98795L32.2896 4.57725ZM32.7158 4.01755L33.446 4.70076C33.455 4.69118 33.4584 4.68865 33.4566 4.69011C33.4544 4.69186 33.4481 4.69662 33.4381 4.70207L32.9596 3.824L32.481 2.94593C32.2738 3.05886 32.1125 3.19867 31.9856 3.33434L32.7158 4.01755ZM32.9596 3.824L33.4381 4.70207C33.7108 4.55343 33.9164 4.29019 33.9799 3.96585C34.0376 3.67105 33.9638 3.40471 33.851 3.21164C33.7377 3.01766 33.5475 2.83208 33.2804 2.73602C32.9895 2.63143 32.6699 2.65747 32.3988 2.80525L32.8773 3.68331L33.3559 4.56138C33.1308 4.68404 32.8561 4.70883 32.6037 4.61806C32.375 4.53583 32.2168 4.37915 32.124 4.22034C32.0318 4.06245 31.9671 3.83757 32.0171 3.5817C32.073 3.2963 32.2543 3.06947 32.481 2.94593L32.9596 3.824ZM32.8773 3.68331L32.3988 2.80522C32 3.02257 31.7504 3.34861 31.6131 3.5332L32.4155 4.13001L33.2179 4.72682C33.274 4.65137 33.3095 4.60874 33.3372 4.5805C33.3623 4.55485 33.3679 4.55484 33.3558 4.56141L32.8773 3.68331ZM32.4155 4.13001L31.6131 3.53323C31.4526 3.74907 31.2903 3.97521 31.1419 4.17869L31.9498 4.768L32.7577 5.35732C32.9196 5.13541 33.0642 4.93345 33.2179 4.72679L32.4155 4.13001ZM31.9498 4.768L31.1419 4.1787C30.8259 4.61187 30.51 5.04502 30.194 5.47817L31.0019 6.06749L31.8098 6.6568C32.1258 6.22364 32.4417 5.79046 32.7577 5.35731L31.9498 4.768ZM31.0019 6.06749L30.194 5.47817C30.0347 5.69657 29.8754 5.91499 29.7161 6.13342L30.524 6.72269L31.3319 7.31197C31.4912 7.09358 31.6505 6.8752 31.8098 6.6568L31.0019 6.06749ZM30.524 6.72269L29.7161 6.1334C29.6776 6.18618 29.6391 6.23895 29.6006 6.29173C29.5621 6.34451 29.5236 6.3973 29.4851 6.45009L30.293 7.03938L31.1009 7.62867C31.1394 7.57589 31.1779 7.52312 31.2164 7.47034C31.2549 7.41756 31.2934 7.36478 31.3319 7.31199L30.524 6.72269ZM30.293 7.03938L29.4851 6.45007C29.4574 6.48807 29.3116 6.6737 29.2177 6.82804L30.0721 7.34764L30.9265 7.86725C30.9634 7.80665 30.9805 7.79377 31.1009 7.62869L30.293 7.03938ZM30.0721 7.34764L29.2177 6.82806C29.0782 7.05738 28.9364 7.42356 29.0296 7.86102L30.0077 7.65247L30.9857 7.44392C31.0328 7.66507 30.9533 7.82316 30.9265 7.86723L30.0721 7.34764ZM30.0077 7.65247L29.0296 7.86092C29.1094 8.23502 29.3389 8.49648 29.3919 8.56098L30.1649 7.92656L30.9378 7.29215C30.9234 7.2746 30.9168 7.26613 30.9128 7.26096C30.9093 7.25624 30.9123 7.25991 30.9186 7.26992C30.9304 7.28884 30.9655 7.34947 30.9857 7.44402L30.0077 7.65247ZM30.1649 7.92656L29.3919 8.56099C29.566 8.7731 29.7513 8.99073 29.9155 9.18698L30.6824 8.54531L31.4494 7.90364C31.2686 7.68748 31.1049 7.49566 30.9378 7.29214L30.1649 7.92656ZM30.6824 8.54531L29.9155 9.18698C30.6076 10.0143 31.2998 10.8416 31.9919 11.669L32.7589 11.0273L33.5259 10.3856C32.8337 9.5583 32.1416 8.73097 31.4494 7.90364L30.6824 8.54531ZM32.7589 11.0273L31.9919 11.669C32.6841 12.4963 33.3763 13.3236 34.0684 14.151L34.8354 13.5093L35.6024 12.8676C34.9102 12.0403 34.2181 11.213 33.5259 10.3856L32.7589 11.0273ZM34.8354 13.5093L34.0684 14.151C34.4131 14.5629 34.7577 14.9748 35.1023 15.3868C35.447 15.7987 35.7916 16.2106 36.1362 16.6226L36.9032 15.9809L37.6702 15.3392C37.3256 14.9273 36.9809 14.5154 36.6363 14.1034C36.2917 13.6915 35.947 13.2795 35.6024 12.8676L34.8354 13.5093ZM36.9032 15.9809L36.1363 16.6226C36.1797 16.6745 36.2231 16.7264 36.2666 16.7783C36.31 16.8303 36.3534 16.8822 36.3969 16.9341L37.1639 16.2924L37.9308 15.6507C37.8874 15.5988 37.844 15.5469 37.8005 15.495C37.7571 15.4431 37.7136 15.3911 37.6702 15.3392L36.9032 15.9809ZM37.1639 16.2924L36.3968 16.934C36.6901 17.2846 37.1111 17.3601 37.4308 17.2949C37.7092 17.2382 37.9427 17.0778 38.0962 16.8701L37.2918 16.2759L36.4875 15.6818C36.6127 15.5123 36.8006 15.3823 37.0313 15.3352C37.3035 15.2798 37.6746 15.3444 37.9309 15.6508L37.1639 16.2924ZM37.2918 16.2759L38.0962 16.8701C38.5622 16.2391 39.0282 15.6081 39.4943 14.9772C39.9603 14.3462 40.4263 13.7152 40.8923 13.0843L40.088 12.4902L39.2836 11.8961C38.8175 12.527 38.3515 13.158 37.8855 13.7889C37.4195 14.4199 36.9535 15.0509 36.4874 15.6818L37.2918 16.2759ZM40.088 12.4902L40.8923 13.0843C41.3584 12.4533 41.8244 11.8223 42.2904 11.1914C42.7564 10.5604 43.2225 9.92945 43.6885 9.29848L42.8841 8.70437L42.0797 8.11026C41.6137 8.74123 41.1477 9.37219 40.6816 10.0032C40.2156 10.6341 39.7496 11.2651 39.2836 11.8961L40.088 12.4902ZM42.8841 8.70437L43.6885 9.29849C43.9208 8.98398 44.155 8.66743 44.388 8.35133L43.5831 7.75792L42.7782 7.16452C42.5458 7.47978 42.3134 7.79381 42.0797 8.11026L42.8841 8.70437ZM43.5831 7.75792L44.388 8.35134C44.5003 8.19905 44.8875 7.66136 44.6245 6.97402L43.6906 7.33139L42.7566 7.68876C42.7293 7.61737 42.7132 7.53648 42.7129 7.4518C42.7125 7.36894 42.7272 7.30008 42.7433 7.2503C42.771 7.16432 42.8065 7.12622 42.7782 7.1645L43.5831 7.75792ZM43.6906 7.33139L44.6245 6.974C44.5331 6.73503 44.3945 6.56124 44.3044 6.45863C44.2576 6.40526 44.2121 6.35816 44.1805 6.32571C44.1433 6.28748 44.1269 6.27094 44.1103 6.25299L43.3762 6.93209L42.6422 7.61118C42.6634 7.63412 42.6837 7.65527 42.7009 7.67307C42.7164 7.68905 42.7361 7.70921 42.7474 7.72079C42.7758 7.74999 42.7906 7.76574 42.8009 7.77752C42.8106 7.78858 42.8078 7.78656 42.7996 7.77428C42.7911 7.76142 42.7734 7.7325 42.7566 7.68878L43.6906 7.33139ZM43.3762 6.93209L44.1103 6.253C43.8437 5.9648 43.577 5.6766 43.3104 5.38839C43.0438 5.10019 42.7772 4.81199 42.5106 4.52378L41.7765 5.20287L41.0424 5.88196C41.3091 6.17016 41.5757 6.45836 41.8423 6.74657C42.1089 7.03477 42.3755 7.32297 42.6422 7.61118L43.3762 6.93209ZM41.7765 5.20287L42.5106 4.52379C42.247 4.23889 41.9834 3.954 41.7199 3.66911L40.9858 4.3482L40.2518 5.0273C40.5153 5.31219 40.7789 5.59707 41.0424 5.88195L41.7765 5.20287ZM40.9858 4.3482L41.7199 3.66913C41.6003 3.5398 41.4576 3.38238 41.3192 3.23697L40.5949 3.92645L39.8706 4.61593C39.9964 4.74814 40.1111 4.87524 40.2518 5.02728L40.9858 4.3482ZM40.5949 3.92645L41.3192 3.23694C41.1906 3.10186 40.9748 2.88501 40.6773 2.72734L40.209 3.6109L39.7407 4.49446C39.735 4.49143 39.7432 4.49487 39.7673 4.51536C39.7923 4.53656 39.8242 4.5672 39.8706 4.61596L40.5949 3.92645ZM40.209 3.6109L40.6773 2.72735C40.3518 2.5548 40.0278 2.50317 39.7785 2.48612C39.5513 2.47058 39.2932 2.48188 39.1777 2.4833L39.19 3.48323L39.2023 4.48315C39.2507 4.48256 39.2987 4.48146 39.3409 4.48051C39.3849 4.47952 39.4234 4.47867 39.4611 4.4782C39.5368 4.47726 39.594 4.47817 39.642 4.48146C39.7399 4.48815 39.7558 4.50245 39.7407 4.49445L40.209 3.6109ZM39.19 3.48323L39.1776 2.4833C38.9794 2.48575 38.7811 2.4882 38.5828 2.49064C38.3846 2.49309 38.1863 2.49553 37.9881 2.49798L38.0004 3.4979L38.0127 4.49783C38.211 4.49538 38.4093 4.49294 38.6075 4.49049C38.8058 4.48804 39.004 4.4856 39.2023 4.48315L39.19 3.48323ZM38.0004 3.4979L37.9881 2.49798C37.596 2.50281 37.204 2.50765 36.812 2.51249C36.42 2.51732 36.028 2.52216 35.636 2.527L35.6483 3.52692L35.6606 4.52684C36.0527 4.52201 36.4447 4.51717 36.8367 4.51233C37.2287 4.5075 37.6207 4.50266 38.0127 4.49783L38.0004 3.4979ZM35.6483 3.52692L35.636 2.527C35.4422 2.52939 35.2485 2.53178 35.0547 2.53417C34.861 2.53656 34.6672 2.53895 34.4734 2.54134L34.4858 3.54126L34.4981 4.54119C34.6919 4.53879 34.8856 4.5364 35.0794 4.53401C35.2731 4.53162 35.4669 4.52923 35.6606 4.52684L35.6483 3.52692ZM34.4858 3.54126L34.4734 2.54134C34.3743 2.54256 34.2752 2.54379 34.176 2.54501C34.0769 2.54623 33.9778 2.54746 33.8787 2.54868L33.891 3.5486L33.9033 4.54853C34.0025 4.54731 34.1016 4.54608 34.2007 4.54486C34.2999 4.54363 34.399 4.54241 34.4981 4.54119L34.4858 3.54126ZM33.891 3.5486L33.8787 2.54868C33.7412 2.55038 33.4862 2.54636 33.2549 2.56617L33.3403 3.56252L33.4256 4.55887C33.5598 4.54738 33.6744 4.55135 33.9033 4.54853L33.891 3.5486ZM33.3403 3.56252L33.2549 2.56617C33.0154 2.5867 32.7222 2.64047 32.4243 2.79179L32.8773 3.68331L33.3303 4.57482C33.3234 4.57835 33.3419 4.56605 33.4256 4.55887L33.3403 3.56252ZM32.8773 3.68331L32.4243 2.79182C32.1472 2.93261 31.928 3.19393 31.8585 3.52879C31.7957 3.83143 31.873 4.10245 31.9852 4.29426C32.2037 4.66764 32.7805 5.03665 33.4126 4.71551L32.9596 3.824L32.5066 2.93248C33.0452 2.65879 33.5342 2.98122 33.7115 3.28427C33.8031 3.44091 33.8716 3.67084 33.8167 3.93523C33.7552 4.23184 33.5607 4.45776 33.3304 4.57479L32.8773 3.68331Z" fill="#F6C200" mask="url(#path-1-inside-1_4_48)"/>
<mask id="path-3-inside-2_4_48" fill="white">
<path d="M30.142 7.61655C31.0314 7.65989 31.9203 7.71271 32.8093 7.76369C33.6881 7.81408 34.5671 7.86259 35.4466 7.89717C36.3169 7.93139 37.1879 7.95196 38.0589 7.94655C38.9238 7.94118 39.7889 7.9101 40.6512 7.84136C41.5136 7.77262 42.3734 7.66622 43.2249 7.5128C43.3343 7.49309 43.4435 7.47255 43.5525 7.45134C43.6554 7.43133 43.6118 7.27427 43.5092 7.29423C42.6606 7.4593 41.8034 7.57648 40.9424 7.65376C40.0811 7.73107 39.2167 7.76947 38.3521 7.78079C37.4863 7.79213 36.6204 7.77641 35.7552 7.74578C34.881 7.71483 34.0074 7.66869 33.1341 7.61927C32.2463 7.56902 31.3587 7.51538 30.4707 7.47002C30.3611 7.46442 30.2516 7.45896 30.142 7.45362C30.0372 7.44852 30.0374 7.61146 30.142 7.61655Z"/>
</mask>
<path d="M30.142 7.61655C31.0314 7.65989 31.9203 7.71271 32.8093 7.76369C33.6881 7.81408 34.5671 7.86259 35.4466 7.89717C36.3169 7.93139 37.1879 7.95196 38.0589 7.94655C38.9238 7.94118 39.7889 7.9101 40.6512 7.84136C41.5136 7.77262 42.3734 7.66622 43.2249 7.5128C43.3343 7.49309 43.4435 7.47255 43.5525 7.45134C43.6554 7.43133 43.6118 7.27427 43.5092 7.29423C42.6606 7.4593 41.8034 7.57648 40.9424 7.65376C40.0811 7.73107 39.2167 7.76947 38.3521 7.78079C37.4863 7.79213 36.6204 7.77641 35.7552 7.74578C34.881 7.71483 34.0074 7.66869 33.1341 7.61927C32.2463 7.56902 31.3587 7.51538 30.4707 7.47002C30.3611 7.46442 30.2516 7.45896 30.142 7.45362C30.0372 7.44852 30.0374 7.61146 30.142 7.61655Z" fill="#F6C200"/>
<path d="M30.142 7.61655L30.0933 8.61537L30.0933 8.61537L30.142 7.61655ZM32.8093 7.76369L32.7521 8.76205L32.7521 8.76205L32.8093 7.76369ZM35.4466 7.89717L35.4859 6.89795L35.4859 6.89795L35.4466 7.89717ZM38.0589 7.94655L38.0651 8.94653L38.0651 8.94653L38.0589 7.94655ZM40.6512 7.84136L40.5717 6.84452L40.5717 6.84452L40.6512 7.84136ZM43.2249 7.5128L43.4022 8.49696L43.4022 8.49695L43.2249 7.5128ZM43.5525 7.45134L43.7435 8.43294L43.7435 8.43293L43.5525 7.45134ZM43.5092 7.29423L43.7002 8.27583L43.7002 8.27583L43.5092 7.29423ZM40.9424 7.65376L40.853 6.65777L40.853 6.65777L40.9424 7.65376ZM38.3521 7.78079L38.339 6.78088L38.339 6.78088L38.3521 7.78079ZM35.7552 7.74578L35.7198 8.74515L35.7198 8.74515L35.7552 7.74578ZM33.1341 7.61927L33.1906 6.62086L33.1906 6.62086L33.1341 7.61927ZM30.4707 7.47002L30.4196 8.46872L30.4196 8.46872L30.4707 7.47002ZM30.142 7.45362L30.1907 6.45481L30.1906 6.45481L30.142 7.45362ZM30.142 7.61655L30.0933 8.61537C30.9772 8.65843 31.8601 8.7109 32.7521 8.76205L32.8093 7.76369L32.8666 6.76533C31.9805 6.71452 31.0856 6.66134 30.1906 6.61774L30.142 7.61655ZM32.8093 7.76369L32.7521 8.76205C33.6314 8.81248 34.5181 8.86144 35.4074 8.8964L35.4466 7.89717L35.4859 6.89795C34.616 6.86375 33.7448 6.81569 32.8666 6.76533L32.8093 7.76369ZM35.4466 7.89717L35.4074 8.8964C36.2877 8.93102 37.1746 8.95206 38.0651 8.94653L38.0589 7.94655L38.0527 6.94657C37.2012 6.95186 36.3461 6.93177 35.4859 6.89795L35.4466 7.89717ZM38.0589 7.94655L38.0651 8.94653C38.9496 8.94104 39.8395 8.90923 40.7306 8.8382L40.6512 7.84136L40.5717 6.84452C39.7382 6.91096 38.8981 6.94132 38.0527 6.94657L38.0589 7.94655ZM40.6512 7.84136L40.7306 8.8382C41.6219 8.76716 42.5146 8.65687 43.4022 8.49696L43.2249 7.5128L43.0476 6.52865C42.2321 6.67556 41.4052 6.77808 40.5717 6.84452L40.6512 7.84136ZM43.2249 7.5128L43.4022 8.49695C43.5166 8.47634 43.6303 8.45494 43.7435 8.43294L43.5525 7.45134L43.3616 6.46973C43.2566 6.49016 43.1519 6.50984 43.0475 6.52865L43.2249 7.5128ZM43.5525 7.45134L43.7435 8.43293C44.0489 8.37352 44.3361 8.1807 44.4946 7.86947C44.6373 7.58934 44.6306 7.30431 44.5718 7.09137C44.4579 6.67938 44.0053 6.17898 43.3183 6.31263L43.5092 7.29423L43.7002 8.27583C43.1158 8.38952 42.7362 7.95767 42.6441 7.62422C42.5961 7.45055 42.5874 7.20729 42.7125 6.96162C42.8536 6.68483 43.1076 6.51915 43.3616 6.46974L43.5525 7.45134ZM43.5092 7.29423L43.3183 6.31263C42.5064 6.47055 41.6833 6.58324 40.853 6.65777L40.9424 7.65376L41.0318 8.64976C41.9235 8.56972 42.8148 8.44805 43.7002 8.27583L43.5092 7.29423ZM40.9424 7.65376L40.853 6.65777C40.0215 6.7324 39.1829 6.76983 38.339 6.78088L38.3521 7.78079L38.3652 8.78071C39.2504 8.76912 40.1408 8.72974 41.0318 8.64976L40.9424 7.65376ZM38.3521 7.78079L38.339 6.78088C37.4937 6.79195 36.6446 6.77664 35.7906 6.7464L35.7552 7.74578L35.7198 8.74515C36.5962 8.77618 37.4789 8.79231 38.3652 8.78071L38.3521 7.78079ZM35.7552 7.74578L35.7906 6.7464C34.9272 6.71584 34.0621 6.67019 33.1906 6.62086L33.1341 7.61927L33.0776 8.61767C33.9527 8.6672 34.8347 8.71382 35.7198 8.74515L35.7552 7.74578ZM33.1341 7.61927L33.1906 6.62086C32.308 6.57091 31.4133 6.51687 30.5217 6.47132L30.4707 7.47002L30.4196 8.46872C31.3041 8.5139 32.1846 8.56713 33.0776 8.61767L33.1341 7.61927ZM30.4707 7.47002L30.5217 6.47132C30.4113 6.46568 30.301 6.46018 30.1907 6.45481L30.142 7.45362L30.0933 8.45244C30.2021 8.45774 30.3109 8.46316 30.4196 8.46872L30.4707 7.47002ZM30.142 7.45362L30.1906 6.45481C29.8804 6.4397 29.5628 6.55762 29.3374 6.80988C29.1333 7.03829 29.0633 7.30946 29.0635 7.53209C29.0638 7.96623 29.3795 8.58057 30.0933 8.61537L30.142 7.61655L30.1907 6.61774C30.8 6.64744 31.0632 7.17777 31.0635 7.53044C31.0636 7.71233 31.0067 7.94341 30.8287 8.14255C30.6295 8.36553 30.3512 8.465 30.0933 8.45244L30.142 7.45362Z" fill="#F6C200" mask="url(#path-3-inside-2_4_48)"/>
<path d="M34.4617 7.43805L34.4587 7.44391C34.4928 7.48782 34.52 7.53476 34.5417 7.58258C34.5581 7.55918 34.5748 7.53605 34.5906 7.51227L34.6472 7.43121C34.6567 7.41656 34.6652 7.401 34.6746 7.38629C34.6574 7.36265 34.6379 7.3396 34.6208 7.31989L34.5564 7.34625C34.5626 7.36077 34.5687 7.37574 34.575 7.3902C34.5822 7.40697 34.5904 7.42723 34.5945 7.43707C34.5997 7.44986 34.6036 7.45932 34.6072 7.46735C34.6159 7.48681 34.6156 7.48272 34.6052 7.46832C34.6036 7.46603 34.5975 7.45978 34.5886 7.44977M34.4617 7.43805L34.5408 7.40485M34.4617 7.43805L34.5408 7.40485M34.4617 7.43805L34.4978 7.37653C34.5142 7.38576 34.5283 7.39539 34.5408 7.40485M34.5408 7.40485C34.5534 7.41448 34.5642 7.42364 34.573 7.43219M34.573 7.43219L34.53 7.47711M34.573 7.43219L34.53 7.47711M34.573 7.43219C34.5794 7.43843 34.5842 7.44472 34.5886 7.44977M34.53 7.47711L34.5886 7.44977M34.53 7.47711L34.5886 7.44977M34.2957 7.81989H34.2947V7.72711L34.2957 7.72614V7.81989Z" fill="#F6C200" stroke="#F6C200"/>
<mask id="path-6-inside-3_4_48" fill="white">
<path d="M32.7665 3.88845C32.4961 4.86632 32.1526 5.82363 31.8106 6.77824C31.7205 7.02961 31.63 7.28082 31.5401 7.53225C31.5047 7.63116 31.6621 7.67374 31.6972 7.57556C32.0372 6.62453 32.3858 5.676 32.6906 4.71288C32.7726 4.45382 32.8512 4.19365 32.9236 3.93176C32.9517 3.83055 32.7945 3.78736 32.7665 3.88845Z"/>
</mask>
<path d="M32.7665 3.88845C32.4961 4.86632 32.1526 5.82363 31.8106 6.77824C31.7205 7.02961 31.63 7.28082 31.5401 7.53225C31.5047 7.63116 31.6621 7.67374 31.6972 7.57556C32.0372 6.62453 32.3858 5.676 32.6906 4.71288C32.7726 4.45382 32.8512 4.19365 32.9236 3.93176C32.9517 3.83055 32.7945 3.78736 32.7665 3.88845Z" fill="#F6C200"/>
<path d="M32.7665 3.88845L33.7304 4.15503L33.7304 4.15502L32.7665 3.88845ZM31.8106 6.77824L30.8692 6.44096L30.8692 6.44097L31.8106 6.77824ZM31.5401 7.53225L32.4817 7.86898L32.4817 7.86896L31.5401 7.53225ZM31.6972 7.57556L30.7555 7.23887L30.7555 7.23891L31.6972 7.57556ZM32.6906 4.71288L31.7372 4.41113L31.7372 4.41114L32.6906 4.71288ZM32.9236 3.93176L31.9599 3.665L31.9598 3.66518L32.9236 3.93176ZM32.7665 3.88845L31.8027 3.62186C31.5438 4.55784 31.2134 5.48002 30.8692 6.44096L31.8106 6.77824L32.752 7.11551C33.0917 6.16724 33.4483 5.17479 33.7304 4.15503L32.7665 3.88845ZM31.8106 6.77824L30.8692 6.44097C30.7805 6.68843 30.688 6.94519 30.5984 7.19555L31.5401 7.53225L32.4817 7.86896C32.572 7.61644 32.6605 7.3708 32.752 7.11551L31.8106 6.77824ZM31.5401 7.53225L30.5985 7.19553C30.494 7.48772 30.5126 7.83277 30.6991 8.12824C30.867 8.39429 31.1155 8.53426 31.3287 8.59249C31.7401 8.70483 32.4027 8.57252 32.6388 7.91221L31.6972 7.57556L30.7555 7.23891C30.9565 6.67678 31.5229 6.57228 31.8556 6.66315C32.0295 6.71063 32.2432 6.82755 32.3904 7.06087C32.5562 7.32361 32.5685 7.62624 32.4817 7.86898L31.5401 7.53225ZM31.6972 7.57556L32.6388 7.91225C32.9746 6.97305 33.332 6.00038 33.644 5.01461L32.6906 4.71288L31.7372 4.41114C31.4396 5.35162 31.0998 6.27601 30.7555 7.23887L31.6972 7.57556ZM32.6906 4.71288L33.644 5.01462C33.7286 4.74744 33.8109 4.47512 33.8875 4.19834L32.9236 3.93176L31.9598 3.66518C31.8915 3.91219 31.8167 4.1602 31.7372 4.41113L32.6906 4.71288ZM32.9236 3.93176L33.8874 4.19851C33.9701 3.89993 33.9234 3.5758 33.7447 3.31008C33.5815 3.06734 33.3477 2.92962 33.1315 2.8701C32.9152 2.81057 32.6445 2.80941 32.3807 2.93366C32.0921 3.06962 31.8854 3.32301 31.8027 3.62188L32.7665 3.88845L33.7304 4.15502C33.6617 4.40333 33.4851 4.62421 33.2329 4.74301C33.0056 4.85009 32.7777 4.84709 32.6007 4.79838C32.4237 4.74967 32.2258 4.63541 32.085 4.42607C31.9288 4.19376 31.8912 3.91298 31.9599 3.665L32.9236 3.93176Z" fill="#F6C200" mask="url(#path-6-inside-3_4_48)"/>
<mask id="path-8-inside-4_4_48" fill="white">
<path d="M36.6242 3.67259C36.5961 4.20448 36.5931 4.73746 36.5989 5.26995C36.605 5.8264 36.6215 6.38266 36.638 6.93888C36.647 7.24046 36.656 7.54205 36.6631 7.84369C36.6656 7.94836 36.8285 7.94875 36.826 7.84369C36.8132 7.30062 36.7945 6.75771 36.7803 6.21468C36.7658 5.66147 36.7554 5.10799 36.7609 4.55457C36.7639 4.26045 36.7716 3.96633 36.7871 3.67259C36.7926 3.56781 36.6297 3.56811 36.6242 3.67259Z"/>
</mask>
<path d="M36.6242 3.67259C36.5961 4.20448 36.5931 4.73746 36.5989 5.26995C36.605 5.8264 36.6215 6.38266 36.638 6.93888C36.647 7.24046 36.656 7.54205 36.6631 7.84369C36.6656 7.94836 36.8285 7.94875 36.826 7.84369C36.8132 7.30062 36.7945 6.75771 36.7803 6.21468C36.7658 5.66147 36.7554 5.10799 36.7609 4.55457C36.7639 4.26045 36.7716 3.96633 36.7871 3.67259C36.7926 3.56781 36.6297 3.56811 36.6242 3.67259Z" fill="#F6C200"/>
<path d="M36.6242 3.67259L37.6228 3.72528L37.6228 3.72528L36.6242 3.67259ZM36.5989 5.26995L35.599 5.28085L35.599 5.28087L36.5989 5.26995ZM36.638 6.93888L37.6376 6.90918L37.6376 6.90916L36.638 6.93888ZM36.6631 7.84369L35.6634 7.86727L35.6634 7.86728L36.6631 7.84369ZM36.826 7.84369L37.8258 7.8201L37.8258 7.82009L36.826 7.84369ZM36.7803 6.21468L37.78 6.18857L37.78 6.18856L36.7803 6.21468ZM36.7609 4.55457L37.7609 4.56465L37.7609 4.56465L36.7609 4.55457ZM36.7871 3.67259L35.7885 3.61989L35.7885 3.61991L36.7871 3.67259ZM36.6242 3.67259L35.6255 3.6199C35.5959 4.18192 35.593 4.73856 35.599 5.28085L36.5989 5.26995L37.5988 5.25904C37.5931 4.73636 37.5963 4.22704 37.6228 3.72528L36.6242 3.67259ZM36.5989 5.26995L35.599 5.28087C35.6051 5.84827 35.622 6.41389 35.6385 6.9686L36.638 6.93888L37.6376 6.90916C37.621 6.35142 37.6048 5.80453 37.5988 5.25903L36.5989 5.26995ZM36.638 6.93888L35.6385 6.96858C35.6474 7.27085 35.6564 7.56926 35.6634 7.86727L36.6631 7.84369L37.6628 7.8201C37.6556 7.51484 37.6465 7.21008 37.6376 6.90918L36.638 6.93888ZM36.6631 7.84369L35.6634 7.86728C35.6707 8.17697 35.8085 8.46785 36.0461 8.66775C36.264 8.85115 36.5207 8.92207 36.7452 8.92234C36.9689 8.9226 37.2355 8.85231 37.4607 8.65512C37.7082 8.4384 37.8331 8.12995 37.8258 7.8201L36.826 7.84369L35.8263 7.86727C35.8202 7.60995 35.9256 7.34085 36.1433 7.15034C36.3386 6.97936 36.5647 6.92212 36.7476 6.92234C36.9314 6.92256 37.1471 6.98032 37.3338 7.13749C37.5402 7.31116 37.6568 7.56274 37.6628 7.8201L36.6631 7.84369ZM36.826 7.84369L37.8258 7.82009C37.8131 7.28201 37.7937 6.71378 37.78 6.18857L36.7803 6.21468L35.7806 6.2408C35.7953 6.80164 35.8134 7.31924 35.8263 7.86728L36.826 7.84369ZM36.7803 6.21468L37.78 6.18856C37.7656 5.63905 37.7555 5.09983 37.7609 4.56465L36.7609 4.55457L35.761 4.54448C35.7552 5.11615 35.7661 5.6839 35.7806 6.24081L36.7803 6.21468ZM36.7609 4.55457L37.7609 4.56465C37.7638 4.28096 37.7711 4.0015 37.7857 3.72527L36.7871 3.67259L35.7885 3.61991C35.772 3.93116 35.7641 4.23993 35.761 4.54449L36.7609 4.55457ZM36.7871 3.67259L37.7857 3.72529C37.8021 3.41511 37.6854 3.096 37.4322 2.86909C37.2032 2.6638 36.9312 2.59391 36.7088 2.59412C36.2757 2.59452 35.6631 2.90839 35.6255 3.61991L36.6242 3.67259L37.6228 3.72528C37.5907 4.33231 37.0624 4.59379 36.7107 4.59412C36.529 4.59428 36.297 4.53743 36.0972 4.35829C35.8733 4.15753 35.7749 3.87768 35.7885 3.61989L36.7871 3.67259Z" fill="#F6C200" mask="url(#path-8-inside-4_4_48)"/>
<mask id="path-10-inside-5_4_48" fill="white">
<path d="M40.0044 3.75171C40.2529 4.77477 40.574 5.77779 40.8542 6.79221C40.9334 7.07915 41.0092 7.36704 41.0795 7.65631C41.1042 7.75815 41.2613 7.71502 41.2366 7.613C40.988 6.58995 40.6669 5.58692 40.3867 4.5725C40.3075 4.28557 40.2317 3.99768 40.1615 3.70841C40.1367 3.60656 39.9796 3.64969 40.0044 3.75171Z"/>
</mask>
<path d="M40.0044 3.75171C40.2529 4.77477 40.574 5.77779 40.8542 6.79221C40.9334 7.07915 41.0092 7.36704 41.0795 7.65631C41.1042 7.75815 41.2613 7.71502 41.2366 7.613C40.988 6.58995 40.6669 5.58692 40.3867 4.5725C40.3075 4.28557 40.2317 3.99768 40.1615 3.70841C40.1367 3.60656 39.9796 3.64969 40.0044 3.75171Z" fill="#F6C200"/>
<path d="M40.0044 3.75171L40.9761 3.51566L40.9761 3.51563L40.0044 3.75171ZM40.8542 6.79221L39.8903 7.05842L39.8903 7.05844L40.8542 6.79221ZM41.0795 7.65631L42.0512 7.42028L42.0512 7.42025L41.0795 7.65631ZM41.2366 7.613L40.2648 7.84905L40.2648 7.8491L41.2366 7.613ZM40.3867 4.5725L41.3507 4.30628L41.3507 4.30628L40.3867 4.5725ZM40.1615 3.70841L39.1897 3.94442L39.1897 3.94447L40.1615 3.70841ZM40.0044 3.75171L39.0326 3.98777C39.2845 5.0246 39.6262 6.1023 39.8903 7.05842L40.8542 6.79221L41.8181 6.526C41.5218 5.45329 41.2213 4.52493 40.9761 3.51566L40.0044 3.75171ZM40.8542 6.79221L39.8903 7.05844C39.9674 7.3377 40.0404 7.61531 40.1077 7.89237L41.0795 7.65631L42.0512 7.42025C41.978 7.11877 41.8994 6.8206 41.8181 6.52598L40.8542 6.79221ZM41.0795 7.65631L40.1077 7.89234C40.1811 8.19449 40.3828 8.46106 40.68 8.60585C40.95 8.73742 41.2263 8.73455 41.4418 8.6753C41.6583 8.61575 41.8865 8.47978 42.048 8.24649C42.224 7.99245 42.2812 7.67704 42.2083 7.3769L41.2366 7.613L40.2648 7.8491C40.2043 7.59998 40.2512 7.32821 40.4039 7.10777C40.5422 6.90807 40.7342 6.79564 40.9114 6.74691C41.0875 6.69846 41.3215 6.69365 41.5559 6.80786C41.8174 6.93528 41.9902 7.16905 42.0512 7.42028L41.0795 7.65631ZM41.2366 7.613L42.2083 7.37695C41.9564 6.3401 41.6147 5.26244 41.3507 4.30628L40.3867 4.5725L39.4228 4.83872C39.7191 5.9114 40.0197 6.8398 40.2648 7.84905L41.2366 7.613ZM40.3867 4.5725L41.3507 4.30628C41.2735 4.02701 41.2005 3.74941 41.1332 3.47234L40.1615 3.70841L39.1897 3.94447C39.263 4.24594 39.3415 4.54412 39.4228 4.83873L40.3867 4.5725ZM40.1615 3.70841L41.1332 3.47239C41.0598 3.17027 40.8582 2.90369 40.561 2.75889C40.2909 2.6273 40.0146 2.63015 39.7991 2.68941C39.5826 2.74896 39.3544 2.88494 39.1929 3.11824C39.0169 3.37229 38.9597 3.68768 39.0326 3.9878L40.0044 3.75171L40.9761 3.51563C41.0366 3.76473 40.9897 4.03648 40.8371 4.25693C40.6988 4.45662 40.5067 4.56906 40.3295 4.6178C40.1534 4.66626 39.9194 4.67105 39.685 4.55683C39.4234 4.42939 39.2507 4.19562 39.1897 3.94442L40.1615 3.70841Z" fill="#F6C200" mask="url(#path-10-inside-5_4_48)"/>
<mask id="path-12-inside-6_4_48" fill="white">
<path d="M41.1043 7.67653C40.845 8.2221 40.587 8.76826 40.3298 9.3148C40.0737 9.85912 39.8183 10.4038 39.5631 10.9486C39.3088 11.4914 39.0547 12.0343 38.8003 12.577C38.5467 13.1181 38.2927 13.659 38.0379 14.1995C37.7836 14.7386 37.5285 15.2773 37.272 15.8153C37.2401 15.8821 37.2082 15.9489 37.1763 16.0157C37.1573 16.0554 37.1653 16.1037 37.2055 16.1272C37.2411 16.148 37.2979 16.1378 37.317 16.0979C37.5738 15.5603 37.8292 15.0219 38.0835 14.4831C38.3386 13.9429 38.5926 13.4023 38.8462 12.8614C39.1006 12.3189 39.3546 11.7763 39.6088 11.2336C39.8638 10.6891 40.1189 10.1447 40.3748 9.6005C40.6317 9.05417 40.8893 8.50817 41.1481 7.96275C41.1803 7.89475 41.2126 7.82675 41.2449 7.75876C41.2638 7.71905 41.2559 7.67083 41.2157 7.6473C41.1802 7.62654 41.1232 7.63662 41.1043 7.67653Z"/>
</mask>
<path d="M41.1043 7.67653C40.845 8.2221 40.587 8.76826 40.3298 9.3148C40.0737 9.85912 39.8183 10.4038 39.5631 10.9486C39.3088 11.4914 39.0547 12.0343 38.8003 12.577C38.5467 13.1181 38.2927 13.659 38.0379 14.1995C37.7836 14.7386 37.5285 15.2773 37.272 15.8153C37.2401 15.8821 37.2082 15.9489 37.1763 16.0157C37.1573 16.0554 37.1653 16.1037 37.2055 16.1272C37.2411 16.148 37.2979 16.1378 37.317 16.0979C37.5738 15.5603 37.8292 15.0219 38.0835 14.4831C38.3386 13.9429 38.5926 13.4023 38.8462 12.8614C39.1006 12.3189 39.3546 11.7763 39.6088 11.2336C39.8638 10.6891 40.1189 10.1447 40.3748 9.6005C40.6317 9.05417 40.8893 8.50817 41.1481 7.96275C41.1803 7.89475 41.2126 7.82675 41.2449 7.75876C41.2638 7.71905 41.2559 7.67083 41.2157 7.6473C41.1802 7.62654 41.1232 7.63662 41.1043 7.67653Z" fill="#F6C200"/>
<path d="M41.1043 7.67653L42.0075 8.10572L42.0075 8.10569L41.1043 7.67653ZM40.3298 9.3148L39.425 8.889L39.425 8.889L40.3298 9.3148ZM39.5631 10.9486L38.6575 10.5244L38.6575 10.5244L39.5631 10.9486ZM38.8003 12.577L37.8949 12.1526L37.8949 12.1526L38.8003 12.577ZM38.0379 14.1995L37.1334 13.773L37.1334 13.773L38.0379 14.1995ZM37.272 15.8153L36.3694 15.3848L36.3693 15.3848L37.272 15.8153ZM37.1763 16.0157L36.274 15.5846L36.274 15.5846L37.1763 16.0157ZM37.2055 16.1272L37.7104 15.264L37.7103 15.2639L37.2055 16.1272ZM37.317 16.0979L38.2193 16.5291L38.2193 16.529L37.317 16.0979ZM38.0835 14.4831L38.9878 14.91L38.9878 14.91L38.0835 14.4831ZM38.8462 12.8614L39.7516 13.286L39.7516 13.286L38.8462 12.8614ZM39.6088 11.2336L38.7032 10.8095L38.7031 10.8095L39.6088 11.2336ZM40.3748 9.6005L41.2798 10.026L41.2798 10.026L40.3748 9.6005ZM41.1481 7.96275L42.0515 8.39145L42.0515 8.39144L41.1481 7.96275ZM41.2449 7.75876L40.3418 7.32946L40.3417 7.3296L41.2449 7.75876ZM41.2157 7.6473L40.7107 8.51042L40.7108 8.5105L41.2157 7.6473ZM41.1043 7.67653L40.201 7.24733C39.9411 7.79429 39.6826 8.34162 39.425 8.889L40.3298 9.3148L41.2346 9.74061C41.4915 9.19491 41.7489 8.64991 42.0075 8.10572L41.1043 7.67653ZM40.3298 9.3148L39.425 8.889C39.1685 9.43411 38.9128 9.97941 38.6575 10.5244L39.5631 10.9486L40.4687 11.3728C40.7238 10.8282 40.9789 10.2841 41.2346 9.74061L40.3298 9.3148ZM39.5631 10.9486L38.6575 10.5244C38.403 11.0677 38.1493 11.6099 37.8949 12.1526L38.8003 12.577L39.7058 13.0015C39.9602 12.4587 40.2146 11.915 40.4687 11.3728L39.5631 10.9486ZM38.8003 12.577L37.8949 12.1526C37.6414 12.6933 37.3878 13.2335 37.1334 13.773L38.0379 14.1995L38.9423 14.6261C39.1977 14.0846 39.452 13.5429 39.7058 13.0015L38.8003 12.577ZM38.0379 14.1995L37.1334 13.773C36.8796 14.3111 36.6252 14.8484 36.3694 15.3848L37.272 15.8153L38.1746 16.2457C38.4319 15.7061 38.6877 15.1661 38.9423 14.626L38.0379 14.1995ZM37.272 15.8153L36.3693 15.3848C36.3376 15.4514 36.3058 15.518 36.274 15.5846L37.1763 16.0157L38.0786 16.4468C38.1106 16.3798 38.1426 16.3128 38.1746 16.2457L37.272 15.8153ZM37.1763 16.0157L36.274 15.5846C36.0868 15.9765 36.1079 16.6437 36.7007 16.9904L37.2055 16.1272L37.7103 15.2639C38.2228 15.5636 38.2279 16.1343 38.0786 16.4468L37.1763 16.0157ZM37.2055 16.1272L36.7006 16.9903C36.9676 17.1465 37.2585 17.1644 37.4953 17.109C37.7389 17.052 38.0497 16.8839 38.2193 16.5291L37.317 16.0979L36.4147 15.6668C36.5652 15.3518 36.8381 15.2088 37.0396 15.1616C37.2343 15.116 37.479 15.1286 37.7104 15.264L37.2055 16.1272ZM37.317 16.0979L38.2193 16.529C38.4769 15.9897 38.733 15.4499 38.9878 14.91L38.0835 14.4831L37.1792 14.0562C36.9254 14.5939 36.6707 15.1309 36.4146 15.6669L37.317 16.0979ZM38.0835 14.4831L38.9878 14.91C39.2433 14.3688 39.4978 13.8273 39.7516 13.286L38.8462 12.8614L37.9408 12.4368C37.6874 12.9772 37.4338 13.5171 37.1792 14.0562L38.0835 14.4831ZM38.8462 12.8614L39.7516 13.286C40.0062 12.7432 40.2604 12.2001 40.5144 11.6578L39.6088 11.2336L38.7031 10.8095C38.4489 11.3524 38.1951 11.8947 37.9408 12.4368L38.8462 12.8614ZM39.6088 11.2336L40.5144 11.6578C40.7693 11.1133 41.0242 10.5694 41.2798 10.026L40.3748 9.6005L39.4698 9.17499C39.2137 9.71986 38.9582 10.2649 38.7032 10.8095L39.6088 11.2336ZM40.3748 9.6005L41.2798 10.026C41.5363 9.48042 41.7933 8.93553 42.0515 8.39145L41.1481 7.96275L40.2446 7.53404C39.9852 8.08081 39.7271 8.62792 39.4698 9.175L40.3748 9.6005ZM41.1481 7.96275L42.0515 8.39144C42.0837 8.32363 42.1159 8.25579 42.1482 8.18792L41.2449 7.75876L40.3417 7.3296C40.3093 7.3977 40.277 7.46586 40.2446 7.53405L41.1481 7.96275ZM41.2449 7.75876L42.1481 8.18807C42.3329 7.7993 42.315 7.13178 41.7206 6.78411L41.2157 7.6473L40.7108 8.5105C40.1969 8.20989 40.1947 7.6388 40.3418 7.32946L41.2449 7.75876ZM41.2157 7.6473L41.7207 6.78419C41.4537 6.62795 41.1629 6.61017 40.9265 6.66532C40.6834 6.72207 40.3708 6.89013 40.201 7.24737L41.1043 7.67653L42.0075 8.10569C41.8567 8.42301 41.5821 8.56608 41.381 8.613C41.1868 8.65832 40.9422 8.6459 40.7107 8.51042L41.2157 7.6473Z" fill="#F6C200" mask="url(#path-12-inside-6_4_48)"/>
<mask id="path-14-inside-7_4_48" fill="white">
<path d="M38.7287 7.77225C38.5294 8.85481 38.3163 9.93476 38.1005 11.0141C37.8898 12.0682 37.6771 13.1218 37.4749 14.1775C37.3575 14.7904 37.2437 15.404 37.1349 16.0186C37.1273 16.0618 37.1466 16.1063 37.1918 16.1188C37.2312 16.1296 37.2843 16.1054 37.292 16.0619C37.4838 14.978 37.692 13.8971 37.9061 12.8174C38.1151 11.763 38.3291 10.7097 38.5356 9.65478C38.6555 9.04231 38.7728 8.42934 38.8858 7.81557C38.8938 7.77234 38.8739 7.72773 38.8289 7.71536C38.7893 7.70447 38.7367 7.72876 38.7287 7.77225Z"/>
</mask>
<path d="M38.7287 7.77225C38.5294 8.85481 38.3163 9.93476 38.1005 11.0141C37.8898 12.0682 37.6771 13.1218 37.4749 14.1775C37.3575 14.7904 37.2437 15.404 37.1349 16.0186C37.1273 16.0618 37.1466 16.1063 37.1918 16.1188C37.2312 16.1296 37.2843 16.1054 37.292 16.0619C37.4838 14.978 37.692 13.8971 37.9061 12.8174C38.1151 11.763 38.3291 10.7097 38.5356 9.65478C38.6555 9.04231 38.7728 8.42934 38.8858 7.81557C38.8938 7.77234 38.8739 7.72773 38.8289 7.71536C38.7893 7.70447 38.7367 7.72876 38.7287 7.77225Z" fill="#F6C200"/>
<path d="M38.7287 7.77225L37.7453 7.59116L37.7453 7.59117L38.7287 7.77225ZM38.1005 11.0141L37.1199 10.8181L37.1199 10.8181L38.1005 11.0141ZM37.4749 14.1775L38.4571 14.3656L38.4571 14.3656L37.4749 14.1775ZM37.1349 16.0186L38.1196 16.1929L38.1196 16.1928L37.1349 16.0186ZM37.1918 16.1188L37.4568 15.1545L37.4567 15.1545L37.1918 16.1188ZM37.292 16.0619L38.2767 16.2362L38.2768 16.2361L37.292 16.0619ZM37.9061 12.8174L36.9252 12.6229L36.9252 12.6229L37.9061 12.8174ZM38.5356 9.65478L37.5543 9.46267L37.5543 9.46267L38.5356 9.65478ZM38.8858 7.81557L39.8693 7.99664L39.8693 7.9966L38.8858 7.81557ZM38.8289 7.71536L38.5639 8.67959L38.564 8.67961L38.8289 7.71536ZM38.7287 7.77225L37.7453 7.59117C37.5474 8.66593 37.3355 9.73976 37.1199 10.8181L38.1005 11.0141L39.0811 11.2102C39.2971 10.1298 39.5114 9.04369 39.7122 7.95333L38.7287 7.77225ZM38.1005 11.0141L37.1199 10.8181C36.9097 11.8695 36.696 12.9286 36.4928 13.9894L37.4749 14.1775L38.4571 14.3656C38.6583 13.315 38.8699 12.2668 39.0811 11.2102L38.1005 11.0141ZM37.4749 14.1775L36.4928 13.9894C36.3747 14.6061 36.2599 15.2244 36.1502 15.8443L37.1349 16.0186L38.1196 16.1928C38.2274 15.5837 38.3404 14.9748 38.4571 14.3656L37.4749 14.1775ZM37.1349 16.0186L36.1502 15.8442C36.0784 16.2499 36.2527 16.8978 36.927 17.0831L37.1918 16.1188L37.4567 15.1545C37.7136 15.225 37.9153 15.3997 38.0283 15.6141C38.1336 15.814 38.15 16.021 38.1196 16.1929L37.1349 16.0186ZM37.1918 16.1188L36.9268 17.083C37.2242 17.1647 37.5084 17.1072 37.7211 16.9948C37.9403 16.879 38.2062 16.6344 38.2767 16.2362L37.292 16.0619L36.3074 15.8875C36.3702 15.5329 36.6056 15.3222 36.7865 15.2266C36.9609 15.1344 37.1988 15.0836 37.4568 15.1545L37.1918 16.1188ZM37.292 16.0619L38.2768 16.2361C38.4668 15.1618 38.6736 14.0884 38.887 13.0119L37.9061 12.8174L36.9252 12.6229C36.7105 13.7058 36.5008 14.7942 36.3073 15.8876L37.292 16.0619ZM37.9061 12.8174L38.887 13.0119C39.0945 11.9654 39.3105 10.9016 39.517 9.84688L38.5356 9.65478L37.5543 9.46267C37.3477 10.5177 37.1358 11.5607 36.9252 12.6229L37.9061 12.8174ZM38.5356 9.65478L39.517 9.84688C39.6374 9.23171 39.7555 8.61496 39.8693 7.99664L38.8858 7.81557L37.9024 7.63449C37.7902 8.24373 37.6736 8.8529 37.5543 9.46267L38.5356 9.65478ZM38.8858 7.81557L39.8693 7.9966C39.9464 7.57795 39.7615 6.93454 39.0939 6.7511L38.8289 7.71536L38.564 8.67961C37.9864 8.52091 37.8412 7.96674 37.9024 7.63453L38.8858 7.81557ZM38.8289 7.71536L39.094 6.75113C38.7967 6.66941 38.5119 6.72657 38.2979 6.84026C38.0775 6.95733 37.8172 7.20048 37.7453 7.59116L38.7287 7.77225L39.7122 7.95334C39.6483 8.30053 39.4183 8.50979 39.2361 8.60656C39.0602 8.69996 38.8215 8.75042 38.5639 8.67959L38.8289 7.71536Z" fill="#F6C200" mask="url(#path-14-inside-7_4_48)"/>
<mask id="path-16-inside-8_4_48" fill="white">
<path d="M36.6632 7.91005C36.6608 7.99585 36.6662 8.0822 36.6698 8.16789C36.6767 8.33291 36.6852 8.49787 36.6939 8.6628C36.7208 9.17336 36.7508 9.68378 36.7807 10.1942C36.8193 10.8527 36.8585 11.5112 36.8972 12.1698C36.9373 12.8523 36.9769 13.5349 37.0147 14.2176C37.0478 14.8147 37.0799 15.4119 37.1072 16.0093C37.1099 16.0694 37.1126 16.1294 37.1152 16.1895C37.1198 16.2939 37.2827 16.2945 37.2782 16.1895C37.2529 15.6107 37.2223 15.0322 37.1907 14.4538C37.1536 13.7756 37.1144 13.0975 37.0748 12.4194C37.0357 11.7513 36.9959 11.0832 36.9566 10.4151C36.9252 9.88117 36.8938 9.34721 36.8649 8.81312C36.8493 8.52498 36.828 8.2357 36.8259 7.94702C36.8258 7.93469 36.8258 7.92237 36.8261 7.91005C36.8289 7.80518 36.666 7.80524 36.6632 7.91005Z"/>
</mask>
<path d="M36.6632 7.91005C36.6608 7.99585 36.6662 8.0822 36.6698 8.16789C36.6767 8.33291 36.6852 8.49787 36.6939 8.6628C36.7208 9.17336 36.7508 9.68378 36.7807 10.1942C36.8193 10.8527 36.8585 11.5112 36.8972 12.1698C36.9373 12.8523 36.9769 13.5349 37.0147 14.2176C37.0478 14.8147 37.0799 15.4119 37.1072 16.0093C37.1099 16.0694 37.1126 16.1294 37.1152 16.1895C37.1198 16.2939 37.2827 16.2945 37.2782 16.1895C37.2529 15.6107 37.2223 15.0322 37.1907 14.4538C37.1536 13.7756 37.1144 13.0975 37.0748 12.4194C37.0357 11.7513 36.9959 11.0832 36.9566 10.4151C36.9252 9.88117 36.8938 9.34721 36.8649 8.81312C36.8493 8.52498 36.828 8.2357 36.8259 7.94702C36.8258 7.93469 36.8258 7.92237 36.8261 7.91005C36.8289 7.80518 36.666 7.80524 36.6632 7.91005Z" fill="#F6C200"/>
<path d="M36.6632 7.91005L35.6635 7.88286L35.6635 7.88289L36.6632 7.91005ZM36.6698 8.16789L35.6707 8.20942L35.6707 8.20945L36.6698 8.16789ZM36.6939 8.6628L37.6925 8.61008L37.6925 8.61006L36.6939 8.6628ZM36.7807 10.1942L35.7824 10.2527L35.7824 10.2527L36.7807 10.1942ZM36.8972 12.1698L35.8989 12.2284L35.8989 12.2284L36.8972 12.1698ZM37.0147 14.2176L36.0163 14.2729L36.0163 14.2729L37.0147 14.2176ZM37.1072 16.0093L36.1082 16.0549L36.1082 16.055L37.1072 16.0093ZM37.1152 16.1895L38.1143 16.1459L38.1143 16.1458L37.1152 16.1895ZM37.2782 16.1895L36.2791 16.2331L36.2791 16.2331L37.2782 16.1895ZM37.1907 14.4538L36.1922 14.5084L36.1922 14.5084L37.1907 14.4538ZM37.0748 12.4194L36.0765 12.4778L36.0765 12.4778L37.0748 12.4194ZM36.9566 10.4151L37.9549 10.3564L37.9549 10.3564L36.9566 10.4151ZM36.8649 8.81312L37.8634 8.75906L37.8634 8.75906L36.8649 8.81312ZM36.8259 7.94702L35.8259 7.95405L35.8259 7.95443L36.8259 7.94702ZM36.8261 7.91005L37.8257 7.93749L37.8257 7.93723L36.8261 7.91005ZM36.6632 7.91005L35.6635 7.88289C35.66 8.01365 35.6683 8.15276 35.6707 8.20942L36.6698 8.16789L37.6689 8.12635C37.6642 8.01164 37.6617 7.97805 37.6628 7.93722L36.6632 7.91005ZM36.6698 8.16789L35.6707 8.20945C35.6778 8.38054 35.6865 8.55037 35.6953 8.71554L36.6939 8.6628L37.6925 8.61006C37.6838 8.44536 37.6755 8.28527 37.6689 8.12633L36.6698 8.16789ZM36.6939 8.6628L35.6953 8.71552C35.7224 9.2295 35.7526 9.74288 35.7824 10.2527L36.7807 10.1942L37.779 10.1357C37.7491 9.62468 37.7193 9.11723 37.6925 8.61008L36.6939 8.6628ZM36.7807 10.1942L35.7824 10.2527C35.8209 10.909 35.8605 11.5732 35.8989 12.2284L36.8972 12.1698L37.8955 12.1112C37.8566 11.4492 37.8177 10.7964 37.779 10.1357L36.7807 10.1942ZM36.8972 12.1698L35.8989 12.2284C35.939 12.9106 35.9785 13.5919 36.0163 14.2729L37.0147 14.2176L38.0132 14.1623C37.9753 13.478 37.9356 12.7941 37.8955 12.1111L36.8972 12.1698ZM37.0147 14.2176L36.0163 14.2729C36.0493 14.8693 36.0812 15.4625 36.1082 16.0549L37.1072 16.0093L38.1061 15.9637C38.0786 15.3613 38.0463 14.7602 38.0132 14.1623L37.0147 14.2176ZM37.1072 16.0093L36.1082 16.055C36.1109 16.1143 36.1136 16.1737 36.1162 16.2332L37.1152 16.1895L38.1143 16.1458C38.1116 16.0852 38.1089 16.0244 38.1061 15.9636L37.1072 16.0093ZM37.1152 16.1895L36.1162 16.2331C36.1475 16.9498 36.764 17.2673 37.1984 17.268C37.4212 17.2684 37.6918 17.1985 37.92 16.9956C38.1717 16.7716 38.2907 16.4557 38.2772 16.1459L37.2782 16.1895L36.2791 16.2331C36.2679 15.9758 36.3683 15.6992 36.5906 15.5014C36.7893 15.3246 37.0197 15.2677 37.2018 15.268C37.3855 15.2683 37.597 15.326 37.7804 15.4776C37.9824 15.6445 38.1031 15.889 38.1143 16.1459L37.1152 16.1895ZM37.2782 16.1895L38.2772 16.1459C38.2517 15.5614 38.2208 14.9784 38.1892 14.3991L37.1907 14.4538L36.1922 14.5084C36.2237 15.086 36.2541 15.66 36.2791 16.2331L37.2782 16.1895ZM37.1907 14.4538L38.1892 14.3992C38.152 13.7191 38.1128 13.0395 38.0731 12.361L37.0748 12.4194L36.0765 12.4778C36.1161 13.1555 36.1552 13.8321 36.1922 14.5084L37.1907 14.4538ZM37.0748 12.4194L38.0731 12.361C38.034 11.693 37.9941 11.0233 37.9549 10.3564L36.9566 10.4151L35.9584 10.4738C35.9977 11.1432 36.0374 11.8096 36.0765 12.4778L37.0748 12.4194ZM36.9566 10.4151L37.9549 10.3564C37.9235 9.82198 37.8922 9.29041 37.8634 8.75906L36.8649 8.81312L35.8663 8.86717C35.8954 9.40402 35.927 9.94036 35.9584 10.4738L36.9566 10.4151ZM36.8649 8.81312L37.8634 8.75906C37.8464 8.44507 37.8278 8.19728 37.8258 7.9396L36.8259 7.94702L35.8259 7.95443C35.8283 8.27412 35.8521 8.60488 35.8663 8.86718L36.8649 8.81312ZM36.8259 7.94702L37.8258 7.93999C37.8258 7.93518 37.8258 7.93328 37.8258 7.93258C37.8258 7.93203 37.8258 7.93393 37.8257 7.93749L36.8261 7.91005L35.8265 7.88262C35.8256 7.91316 35.8258 7.93992 35.8259 7.95405L36.8259 7.94702ZM36.8261 7.91005L37.8257 7.93723C37.8342 7.62688 37.7099 7.31739 37.4622 7.09976C37.2369 6.90188 36.9701 6.83137 36.7466 6.83142C36.522 6.83147 36.2656 6.90213 36.0477 7.08481C35.8103 7.28385 35.6719 7.57371 35.6635 7.88286L36.6632 7.91005L37.6628 7.93725C37.6558 8.19399 37.5388 8.44454 37.3327 8.61736C37.1461 8.77384 36.9308 8.83138 36.747 8.83142C36.5642 8.83146 36.3377 8.77405 36.1423 8.60237C35.9244 8.41096 35.8195 8.14079 35.8265 7.88288L36.8261 7.91005Z" fill="#F6C200" mask="url(#path-16-inside-8_4_48)"/>
<mask id="path-18-inside-9_4_48" fill="white">
<path d="M34.2107 7.81186C34.5366 8.92944 34.8981 10.0363 35.2818 11.1353C35.6624 12.2254 36.0645 13.3079 36.4732 14.3877C36.7035 14.996 36.9359 15.6035 37.1678 16.2112C37.1834 16.2523 37.2226 16.2806 37.268 16.2681C37.3073 16.2573 37.3406 16.2092 37.3249 16.1679C36.9132 15.0889 36.4998 14.0104 36.0996 12.9271C35.6987 11.8417 35.3111 10.7514 34.9513 9.65164C34.747 9.02703 34.5518 8.39945 34.3678 7.76855C34.3385 7.66809 34.1812 7.71084 34.2107 7.81186Z"/>
</mask>
<path d="M34.2107 7.81186C34.5366 8.92944 34.8981 10.0363 35.2818 11.1353C35.6624 12.2254 36.0645 13.3079 36.4732 14.3877C36.7035 14.996 36.9359 15.6035 37.1678 16.2112C37.1834 16.2523 37.2226 16.2806 37.268 16.2681C37.3073 16.2573 37.3406 16.2092 37.3249 16.1679C36.9132 15.0889 36.4998 14.0104 36.0996 12.9271C35.6987 11.8417 35.3111 10.7514 34.9513 9.65164C34.747 9.02703 34.5518 8.39945 34.3678 7.76855C34.3385 7.66809 34.1812 7.71084 34.2107 7.81186Z" fill="#F6C200"/>
<path d="M34.2107 7.81186L33.2507 8.09181L33.2507 8.09185L34.2107 7.81186ZM35.2818 11.1353L36.226 10.8057L36.226 10.8057L35.2818 11.1353ZM36.4732 14.3877L37.4085 14.0336L37.4085 14.0336L36.4732 14.3877ZM37.1678 16.2112L38.1021 15.8548L38.1021 15.8547L37.1678 16.2112ZM37.268 16.2681L37.0031 15.3038L37.003 15.3038L37.268 16.2681ZM37.3249 16.1679L38.2592 15.8114L38.2592 15.8114L37.3249 16.1679ZM36.0996 12.9271L37.0377 12.5805L37.0377 12.5805L36.0996 12.9271ZM34.9513 9.65164L35.9018 9.34074L35.9018 9.34074L34.9513 9.65164ZM34.3678 7.76855L33.4078 8.0485L33.4078 8.04854L34.3678 7.76855ZM34.2107 7.81186L33.2507 8.09185C33.5825 9.22964 33.9497 10.3534 34.3377 11.465L35.2818 11.1353L36.226 10.8057C35.8466 9.71923 35.4907 8.62925 35.1707 7.53188L34.2107 7.81186ZM35.2818 11.1353L34.3377 11.465C34.7225 12.5669 35.128 13.6586 35.538 14.7417L36.4732 14.3877L37.4085 14.0336C37.001 12.9572 36.6024 11.8839 36.226 10.8057L35.2818 11.1353ZM36.4732 14.3877L35.538 14.7417C35.7689 15.3516 36.002 15.961 36.2334 16.5677L37.1678 16.2112L38.1021 15.8547C37.8698 15.2459 37.6381 14.6403 37.4085 14.0336L36.4732 14.3877ZM37.1678 16.2112L36.2334 16.5676C36.3796 16.9508 36.8594 17.4174 37.5329 17.2324L37.268 16.2681L37.003 15.3038C37.2582 15.2337 37.5205 15.2796 37.7281 15.4064C37.9212 15.5244 38.0406 15.6936 38.1021 15.8548L37.1678 16.2112ZM37.268 16.2681L37.5329 17.2324C37.8314 17.1503 38.0464 16.9546 38.1714 16.7492C38.3002 16.5375 38.4038 16.1904 38.2592 15.8114L37.3249 16.1679L36.3905 16.5243C36.2617 16.1867 36.3565 15.8843 36.4628 15.7096C36.5652 15.5413 36.7438 15.375 37.0031 15.3038L37.268 16.2681ZM37.3249 16.1679L38.2592 15.8114C37.8466 14.73 37.4356 13.6577 37.0377 12.5805L36.0996 12.9271L35.1616 13.2736C35.5641 14.3632 35.9798 15.4477 36.3906 16.5243L37.3249 16.1679ZM36.0996 12.9271L37.0377 12.5805C36.6394 11.5026 36.2563 10.4247 35.9018 9.34074L34.9513 9.65164L34.0009 9.96254C34.3658 11.078 34.7579 12.1809 35.1616 13.2736L36.0996 12.9271ZM34.9513 9.65164L35.9018 9.34074C35.7005 8.72534 35.5085 8.1081 35.3278 7.48857L34.3678 7.76855L33.4078 8.04854C33.5951 8.69079 33.7936 9.32873 34.0009 9.96254L34.9513 9.65164ZM34.3678 7.76855L35.3278 7.48861C35.2409 7.19072 35.0319 6.94353 34.7477 6.81166C34.4874 6.69085 34.2197 6.69088 34.0032 6.75014C33.7872 6.80926 33.5502 6.94743 33.3858 7.19493C33.2053 7.46652 33.164 7.7947 33.2507 8.09181L34.2107 7.81186L35.1707 7.53191C35.2426 7.77851 35.2099 8.06347 35.0516 8.30177C34.9093 8.51599 34.7079 8.6308 34.5312 8.67917C34.354 8.72767 34.1293 8.72954 33.9058 8.6258C33.6584 8.51101 33.48 8.29615 33.4078 8.0485L34.3678 7.76855Z" fill="#F6C200" mask="url(#path-18-inside-9_4_48)"/>
<mask id="path-20-inside-10_4_48" fill="white">
<path d="M31.5316 7.66138C31.9222 8.19251 32.3057 8.72878 32.6828 9.26949C33.06 9.81025 33.4309 10.3554 33.7965 10.904C34.1641 11.4557 34.5264 12.0109 34.8845 12.5688C35.2448 13.1301 35.6009 13.6941 35.9541 14.26C36.3141 14.8371 36.6711 15.416 37.0262 15.9961C37.0707 16.0687 37.1152 16.1414 37.1596 16.2141C37.2142 16.3034 37.3551 16.2216 37.3003 16.1318C36.9448 15.5502 36.5876 14.9696 36.2275 14.3908C35.873 13.8211 35.5156 13.2532 35.1542 12.6879C34.7967 12.1289 34.4352 11.5724 34.0685 11.0194C33.7055 10.472 33.3375 9.92805 32.9633 9.38833C32.5878 8.84671 32.2062 8.30936 31.8174 7.77714C31.7692 7.71107 31.7208 7.64508 31.6723 7.57915C31.6463 7.54376 31.6017 7.52606 31.5609 7.54993C31.526 7.57034 31.5054 7.62573 31.5316 7.66138Z"/>
</mask>
<path d="M31.5316 7.66138C31.9222 8.19251 32.3057 8.72878 32.6828 9.26949C33.06 9.81025 33.4309 10.3554 33.7965 10.904C34.1641 11.4557 34.5264 12.0109 34.8845 12.5688C35.2448 13.1301 35.6009 13.6941 35.9541 14.26C36.3141 14.8371 36.6711 15.416 37.0262 15.9961C37.0707 16.0687 37.1152 16.1414 37.1596 16.2141C37.2142 16.3034 37.3551 16.2216 37.3003 16.1318C36.9448 15.5502 36.5876 14.9696 36.2275 14.3908C35.873 13.8211 35.5156 13.2532 35.1542 12.6879C34.7967 12.1289 34.4352 11.5724 34.0685 11.0194C33.7055 10.472 33.3375 9.92805 32.9633 9.38833C32.5878 8.84671 32.2062 8.30936 31.8174 7.77714C31.7692 7.71107 31.7208 7.64508 31.6723 7.57915C31.6463 7.54376 31.6017 7.52606 31.5609 7.54993C31.526 7.57034 31.5054 7.62573 31.5316 7.66138Z" fill="#F6C200"/>
<path d="M31.5316 7.66138L30.726 8.25374L30.726 8.25377L31.5316 7.66138ZM32.6828 9.26949L33.503 8.69741L33.503 8.69741L32.6828 9.26949ZM33.7965 10.904L34.6287 10.3495L34.6287 10.3495L33.7965 10.904ZM34.8845 12.5688L34.0429 13.109L34.0429 13.109L34.8845 12.5688ZM35.9541 14.26L35.1057 14.7894L35.1057 14.7894L35.9541 14.26ZM37.0262 15.9961L37.8791 15.474L37.8791 15.474L37.0262 15.9961ZM37.1596 16.2141L36.3063 16.7356L36.3063 16.7356L37.1596 16.2141ZM37.3003 16.1318L36.447 16.6533L36.447 16.6534L37.3003 16.1318ZM36.2275 14.3908L37.0765 13.8625L37.0765 13.8625L36.2275 14.3908ZM35.1542 12.6879L35.9967 12.1492L35.9967 12.1492L35.1542 12.6879ZM34.0685 11.0194L34.9019 10.4667L34.9019 10.4667L34.0685 11.0194ZM32.9633 9.38833L33.7852 8.81859L33.7852 8.81859L32.9633 9.38833ZM31.8174 7.77714L31.0099 8.36693L31.0099 8.36697L31.8174 7.77714ZM31.6723 7.57915L30.8667 8.17155L30.8667 8.17157L31.6723 7.57915ZM31.5609 7.54993L32.0655 8.41327L32.0658 8.4131L31.5609 7.54993ZM31.5316 7.66138L30.726 8.25377C31.1113 8.77781 31.49 9.3073 31.8627 9.84158L32.6828 9.26949L33.503 8.69741C33.1214 8.15026 32.733 7.6072 32.3373 7.06899L31.5316 7.66138ZM32.6828 9.26949L31.8626 9.84158C32.2354 10.376 32.6023 10.9152 32.9643 11.4586L33.7965 10.904L34.6287 10.3495C34.2595 9.79555 33.8846 9.24452 33.503 8.69741L32.6828 9.26949ZM33.7965 10.904L32.9643 11.4586C33.3284 12.0049 33.6875 12.5553 34.0429 13.109L34.8845 12.5688L35.726 12.0286C35.3652 11.4665 34.9998 10.9065 34.6287 10.3495L33.7965 10.904ZM34.8845 12.5688L34.0429 13.109C34.4006 13.6661 34.7544 14.2265 35.1057 14.7894L35.9541 14.26L36.8024 13.7306C36.4475 13.1618 36.089 12.5941 35.726 12.0286L34.8845 12.5688ZM35.9541 14.26L35.1057 14.7894C35.4639 15.3635 35.8193 15.9399 36.1734 16.5182L37.0262 15.9961L37.8791 15.474C37.5229 14.8921 37.1644 14.3107 36.8024 13.7306L35.9541 14.26ZM37.0262 15.9961L36.1734 16.5182C36.2177 16.5907 36.262 16.6631 36.3063 16.7356L37.1596 16.2141L38.0128 15.6925C37.9683 15.6197 37.9237 15.5468 37.8791 15.474L37.0262 15.9961ZM37.1596 16.2141L36.3063 16.7356C36.468 17 36.7336 17.1831 37.0405 17.2367C37.322 17.2857 37.5801 17.2173 37.7742 17.1043C37.9677 16.9916 38.1619 16.7967 38.257 16.5137C38.3615 16.2029 38.3149 15.8744 38.1535 15.6103L37.3003 16.1318L36.447 16.6534C36.3131 16.4342 36.2695 16.1496 36.3612 15.8766C36.4436 15.6314 36.6095 15.4681 36.7678 15.3759C36.9267 15.2834 37.1427 15.2243 37.3841 15.2664C37.651 15.3129 37.8785 15.4728 38.0128 15.6925L37.1596 16.2141ZM37.3003 16.1318L38.1535 15.6103C37.797 15.0271 37.4384 14.4442 37.0765 13.8625L36.2275 14.3908L35.3784 14.9192C35.7368 15.4951 36.0925 16.0733 36.447 16.6533L37.3003 16.1318ZM36.2275 14.3908L37.0765 13.8625C36.7203 13.29 36.3607 12.7186 35.9967 12.1492L35.1542 12.6879L34.3117 13.2266C34.6706 13.7879 35.0257 14.3523 35.3784 14.9192L36.2275 14.3908ZM35.1542 12.6879L35.9967 12.1492C35.6366 11.5861 35.2721 11.025 34.9019 10.4667L34.0685 11.0194L33.2351 11.572C33.5983 12.1198 33.9568 12.6716 34.3117 13.2266L35.1542 12.6879ZM34.0685 11.0194L34.9019 10.4667C34.5356 9.91422 34.1636 9.36452 33.7852 8.81859L32.9633 9.38833L32.1415 9.95808C32.5114 10.4916 32.8755 11.0298 33.2351 11.572L34.0685 11.0194ZM32.9633 9.38833L33.7852 8.81859C33.4053 8.27073 33.0189 7.72665 32.625 7.18732L31.8174 7.77714L31.0099 8.36697C31.3934 8.89206 31.7703 9.42269 32.1415 9.95808L32.9633 9.38833ZM31.8174 7.77714L32.625 7.18736C32.576 7.1203 32.527 7.05343 32.478 6.98674L31.6723 7.57915L30.8667 8.17157C30.9146 8.23672 30.9623 8.30183 31.0099 8.36693L31.8174 7.77714ZM31.6723 7.57915L32.478 6.98676C32.2471 6.67273 31.6684 6.32851 31.056 6.68676L31.5609 7.54993L32.0658 8.4131C31.8362 8.5474 31.569 8.57056 31.3342 8.49998C31.1178 8.43493 30.9634 8.30311 30.8667 8.17155L31.6723 7.57915ZM31.5609 7.54993L31.0562 6.68659C30.7894 6.84256 30.633 7.08617 30.565 7.31424C30.4949 7.54952 30.4798 7.91886 30.726 8.25374L31.5316 7.66138L32.3373 7.06902C32.5573 7.36825 32.5394 7.69207 32.4817 7.88564C32.4261 8.07201 32.2974 8.27771 32.0655 8.41327L31.5609 7.54993Z" fill="#F6C200" mask="url(#path-20-inside-10_4_48)"/>
<mask id="path-22-inside-11_4_48" fill="white">
<path d="M38.9424 2.05643C39.2369 2.40444 39.528 2.75531 39.8225 3.10332C39.8509 3.13693 39.9084 3.13261 39.9377 3.10332C39.971 3.07003 39.9662 3.0218 39.9377 2.98811C39.6432 2.6401 39.3521 2.28923 39.0576 1.94122C39.0292 1.90761 38.9717 1.91193 38.9424 1.94122C38.9091 1.97451 38.9139 2.02274 38.9424 2.05643Z"/>
</mask>
<path d="M38.9424 2.05643C39.2369 2.40444 39.528 2.75531 39.8225 3.10332C39.8509 3.13693 39.9084 3.13261 39.9377 3.10332C39.971 3.07003 39.9662 3.0218 39.9377 2.98811C39.6432 2.6401 39.3521 2.28923 39.0576 1.94122C39.0292 1.90761 38.9717 1.91193 38.9424 1.94122C38.9091 1.97451 38.9139 2.02274 38.9424 2.05643Z" fill="#F6C200"/>
<path d="M38.9424 2.05643L39.7058 1.41049L39.7058 1.41048L38.9424 2.05643ZM39.8225 3.10332L40.5859 2.45742L40.5858 2.45737L39.8225 3.10332ZM39.9377 3.10332L40.6447 3.81053L40.6448 3.81043L39.9377 3.10332ZM39.9377 2.98811L39.1743 3.63405L39.1743 3.63405L39.9377 2.98811ZM39.0576 1.94122L38.2942 2.58711L38.2942 2.58716L39.0576 1.94122ZM38.9424 1.94122L38.2354 1.234L38.2353 1.23411L38.9424 1.94122ZM38.9424 2.05643L38.179 2.70236C38.3244 2.87422 38.4693 3.04708 38.6159 3.22211C38.7621 3.39653 38.91 3.5731 39.0591 3.74927L39.8225 3.10332L40.5858 2.45737C40.4404 2.28552 40.2956 2.11266 40.1489 1.93763C40.0028 1.76322 39.8548 1.58665 39.7058 1.41049L38.9424 2.05643ZM39.8225 3.10332L39.059 3.74922C39.3123 4.04856 39.6545 4.13286 39.9048 4.12659C40.1486 4.12048 40.4258 4.0293 40.6447 3.81053L39.9377 3.10332L39.2307 2.39611C39.4202 2.20662 39.654 2.13225 39.8547 2.12722C40.0618 2.12203 40.3611 2.19169 40.5859 2.45742L39.8225 3.10332ZM39.9377 3.10332L40.6448 3.81043C41.133 3.32219 40.9795 2.67122 40.701 2.34217L39.9377 2.98811L39.1743 3.63405C39.0581 3.49675 38.968 3.30445 38.9613 3.07512C38.9541 2.8303 39.0455 2.58125 39.2306 2.39621L39.9377 3.10332ZM39.9377 2.98811L40.7011 2.34217C40.5556 2.17032 40.4108 1.99745 40.2641 1.82242C40.118 1.64801 39.9701 1.47143 39.821 1.29527L39.0576 1.94122L38.2942 2.58716C38.4396 2.75901 38.5845 2.93188 38.7311 3.1069C38.8773 3.28131 39.0252 3.45789 39.1743 3.63405L39.9377 2.98811ZM39.0576 1.94122L39.821 1.29532C39.5678 0.995973 39.2255 0.911677 38.9753 0.917944C38.7314 0.924051 38.4542 1.01523 38.2354 1.23401L38.9424 1.94122L39.6494 2.64843C39.4599 2.83792 39.2261 2.91229 39.0254 2.91732C38.8183 2.9225 38.519 2.85285 38.2942 2.58711L39.0576 1.94122ZM38.9424 1.94122L38.2353 1.23411C37.7471 1.72234 37.9006 2.37331 38.179 2.70237L38.9424 2.05643L39.7058 1.41048C39.822 1.54779 39.9121 1.74009 39.9188 1.96941C39.926 2.21423 39.8345 2.46328 39.6495 2.64832L38.9424 1.94122Z" fill="#F6C200" mask="url(#path-22-inside-11_4_48)"/>
<mask id="path-24-inside-12_4_48" fill="white">
<path d="M40.334 0.0593774C40.2816 0.42177 40.258 0.788296 40.2376 1.15364C40.2144 1.57028 40.1994 1.98737 40.1876 2.40448C40.1818 2.60724 40.177 2.81001 40.1726 3.0128C40.1704 3.11769 40.3333 3.11766 40.3356 3.0128C40.3524 2.22502 40.3717 1.43571 40.434 0.649997C40.4484 0.468181 40.4663 0.274362 40.4911 0.102695C40.4974 0.059204 40.4804 0.0151672 40.4342 0.00248744C40.3959 -0.00803428 40.3403 0.0155572 40.334 0.0593774Z"/>
</mask>
<path d="M40.334 0.0593774C40.2816 0.42177 40.258 0.788296 40.2376 1.15364C40.2144 1.57028 40.1994 1.98737 40.1876 2.40448C40.1818 2.60724 40.177 2.81001 40.1726 3.0128C40.1704 3.11769 40.3333 3.11766 40.3356 3.0128C40.3524 2.22502 40.3717 1.43571 40.434 0.649997C40.4484 0.468181 40.4663 0.274362 40.4911 0.102695C40.4974 0.059204 40.4804 0.0151672 40.4342 0.00248744C40.3959 -0.00803428 40.3403 0.0155572 40.334 0.0593774Z" fill="#F6C200"/>
<path d="M40.334 0.0593774L41.3237 0.202369L41.3237 0.202279L40.334 0.0593774ZM40.2376 1.15364L39.2392 1.09796L39.2392 1.09796L40.2376 1.15364ZM40.1876 2.40448L39.188 2.37619L39.188 2.37619L40.1876 2.40448ZM40.1726 3.0128L39.1729 2.99139L39.1729 2.9914L40.1726 3.0128ZM40.3356 3.0128L39.3358 2.99137L39.3358 2.9914L40.3356 3.0128ZM40.434 0.649997L41.4308 0.728983L41.4308 0.728976L40.434 0.649997ZM40.4911 0.102695L41.4808 0.245704L41.4808 0.24569L40.4911 0.102695ZM40.4342 0.00248744L40.1692 0.966731L40.1693 0.966769L40.4342 0.00248744ZM40.334 0.0593774L39.3443 -0.0836145C39.285 0.326363 39.2596 0.731633 39.2392 1.09796L40.2376 1.15364L41.2361 1.20933C41.2564 0.844959 41.2782 0.517176 41.3237 0.202369L40.334 0.0593774ZM40.2376 1.15364L39.2392 1.09796C39.2152 1.52731 39.1999 1.95442 39.188 2.37619L40.1876 2.40448L41.1872 2.43277C41.1988 2.02032 41.2135 1.61326 41.2361 1.20933L40.2376 1.15364ZM40.1876 2.40448L39.188 2.37619C39.1822 2.58179 39.1772 2.78693 39.1729 2.99139L40.1726 3.0128L41.1724 3.0342C41.1767 2.83309 41.1815 2.63268 41.1872 2.43277L40.1876 2.40448ZM40.1726 3.0128L39.1729 2.9914C39.1662 3.30172 39.2921 3.60907 39.5386 3.82464C39.7631 4.02087 40.0287 4.09147 40.2525 4.09145C40.477 4.09144 40.7346 4.02076 40.9533 3.83644C41.1918 3.63545 41.3287 3.3435 41.3353 3.0342L40.3356 3.0128L39.3358 2.9914C39.3413 2.73452 39.457 2.48191 39.6644 2.30713C39.852 2.14903 40.0686 2.09147 40.2523 2.09145C40.4354 2.09144 40.6606 2.14894 40.855 2.31895C41.0716 2.5083 41.1779 2.77632 41.1724 3.03419L40.1726 3.0128ZM40.3356 3.0128L41.3353 3.03422C41.3523 2.24454 41.3712 1.4822 41.4308 0.728983L40.434 0.649997L39.4371 0.571011C39.3723 1.38922 39.3526 2.2055 39.3358 2.99137L40.3356 3.0128ZM40.434 0.649997L41.4308 0.728976C41.4448 0.55256 41.4607 0.384618 41.4808 0.245704L40.4911 0.102695L39.5014 -0.0403143C39.4718 0.164106 39.4519 0.383803 39.4371 0.571019L40.434 0.649997ZM40.4911 0.102695L41.4808 0.24569C41.5307 -0.0993678 41.402 -0.768697 40.6991 -0.961794L40.4342 0.00248744L40.1693 0.966769C39.912 0.896093 39.7062 0.719262 39.5924 0.497111C39.4896 0.296582 39.4808 0.10174 39.5014 -0.0403002L40.4911 0.102695ZM40.4342 0.00248744L40.6992 -0.961756C40.4013 -1.04364 40.1198 -0.984636 39.9132 -0.877935C39.7 -0.767841 39.4068 -0.516528 39.3442 -0.0835237L40.334 0.0593774L41.3237 0.202279C41.2675 0.591462 41.0052 0.80907 40.831 0.899044C40.6634 0.985624 40.4288 1.03809 40.1692 0.96673L40.4342 0.00248744Z" fill="#F6C200" mask="url(#path-24-inside-12_4_48)"/>
<mask id="path-26-inside-13_4_48" fill="white">
<path d="M41.2524 1.2453C41.0562 1.71265 40.8303 2.18415 40.6216 2.65227C40.5675 2.77344 40.5142 2.89493 40.4629 3.01728C40.4459 3.05786 40.4812 3.10689 40.5198 3.11748C40.5668 3.1304 40.6029 3.10133 40.62 3.06059C40.8162 2.59323 41.0421 2.12173 41.2508 1.65362C41.3049 1.53245 41.3581 1.41096 41.4095 1.28861C41.4265 1.24803 41.3911 1.199 41.3526 1.18841C41.3056 1.17548 41.2695 1.20456 41.2524 1.2453Z"/>
</mask>
<path d="M41.2524 1.2453C41.0562 1.71265 40.8303 2.18415 40.6216 2.65227C40.5675 2.77344 40.5142 2.89493 40.4629 3.01728C40.4459 3.05786 40.4812 3.10689 40.5198 3.11748C40.5668 3.1304 40.6029 3.10133 40.62 3.06059C40.8162 2.59323 41.0421 2.12173 41.2508 1.65362C41.3049 1.53245 41.3581 1.41096 41.4095 1.28861C41.4265 1.24803 41.3911 1.199 41.3526 1.18841C41.3056 1.17548 41.2695 1.20456 41.2524 1.2453Z" fill="#F6C200"/>
<path d="M41.2524 1.2453L40.3303 0.85823L40.3303 0.858282L41.2524 1.2453ZM40.6216 2.65227L41.5349 3.05951L41.5349 3.05951L40.6216 2.65227ZM40.4629 3.01728L41.3849 3.40437L41.385 3.40425L40.4629 3.01728ZM40.5198 3.11748L40.7847 2.15322L40.7847 2.15321L40.5198 3.11748ZM40.62 3.06059L41.542 3.44775L41.5421 3.4476L40.62 3.06059ZM41.2508 1.65362L42.1641 2.06087L42.1641 2.06086L41.2508 1.65362ZM41.4095 1.28861L40.4874 0.901525L40.4874 0.901643L41.4095 1.28861ZM41.3526 1.18841L41.0875 2.15263L41.0876 2.15266L41.3526 1.18841ZM41.2524 1.2453L40.3303 0.858282C40.1381 1.3161 39.9339 1.73889 39.7082 2.24503L40.6216 2.65227L41.5349 3.05951C41.7266 2.62942 41.9743 2.10921 42.1744 1.63231L41.2524 1.2453ZM40.6216 2.65227L39.7082 2.24503C39.6527 2.36954 39.5961 2.49846 39.5408 2.63031L40.4629 3.01728L41.385 3.40425C41.4323 3.29141 41.4823 3.17734 41.5349 3.05951L40.6216 2.65227ZM40.4629 3.01728L39.5408 2.63019C39.3712 3.03428 39.4941 3.40104 39.62 3.60458C39.7425 3.80271 39.9547 3.9993 40.2549 4.08176L40.5198 3.11748L40.7847 2.15321C41.0463 2.22508 41.2216 2.39186 41.321 2.55268C41.4238 2.71891 41.5375 3.04086 41.3849 3.40437L40.4629 3.01728ZM40.5198 3.11748L40.2549 4.08175C40.5525 4.16352 40.8626 4.11386 41.1145 3.95501C41.3429 3.81097 41.4733 3.6113 41.542 3.44775L40.62 3.06059L39.698 2.67342C39.7496 2.55061 39.8534 2.38585 40.0477 2.2633C40.2655 2.12594 40.5341 2.08436 40.7847 2.15322L40.5198 3.11748ZM40.62 3.06059L41.5421 3.4476C41.7342 2.98979 41.9385 2.56699 42.1641 2.06087L41.2508 1.65362L40.3375 1.24638C40.1457 1.67647 39.8981 2.19666 39.6979 2.67357L40.62 3.06059ZM41.2508 1.65362L42.1641 2.06086C42.2197 1.93635 42.2762 1.80744 42.3316 1.67558L41.4095 1.28861L40.4874 0.901643C40.44 1.01448 40.39 1.12855 40.3375 1.24638L41.2508 1.65362ZM41.4095 1.28861L42.3315 1.6757C42.5012 1.27154 42.3782 0.90475 42.2524 0.701271C42.1299 0.503196 41.9177 0.306617 41.6176 0.224149L41.3526 1.18841L41.0876 2.15266C40.826 2.08078 40.6508 1.91402 40.5514 1.75325C40.4486 1.58708 40.3348 1.2651 40.4874 0.901525L41.4095 1.28861ZM41.3526 1.18841L41.6177 0.224185C41.32 0.142334 41.0098 0.192016 40.7579 0.350858C40.5295 0.494895 40.399 0.694576 40.3303 0.85823L41.2524 1.2453L42.1744 1.63236C42.1228 1.75528 42.019 1.92006 41.8247 2.0426C41.6068 2.17995 41.3382 2.22155 41.0875 2.15263L41.3526 1.18841Z" fill="#F6C200" mask="url(#path-26-inside-13_4_48)"/>
<mask id="path-28-inside-14_4_48" fill="white">
<path d="M40.8011 3.31144C41.5763 2.83153 42.3002 2.27801 43.0282 1.73067C43.2184 1.58767 43.4092 1.44548 43.6021 1.30621C43.6378 1.28049 43.6551 1.23532 43.6314 1.19475C43.6108 1.15957 43.5558 1.13964 43.5199 1.16553C42.8065 1.6805 42.1193 2.23098 41.3939 2.72942C41.1723 2.88168 40.9475 3.02923 40.7188 3.17075C40.6298 3.22583 40.7116 3.36684 40.8011 3.31144Z"/>
</mask>
<path d="M40.8011 3.31144C41.5763 2.83153 42.3002 2.27801 43.0282 1.73067C43.2184 1.58767 43.4092 1.44548 43.6021 1.30621C43.6378 1.28049 43.6551 1.23532 43.6314 1.19475C43.6108 1.15957 43.5558 1.13964 43.5199 1.16553C42.8065 1.6805 42.1193 2.23098 41.3939 2.72942C41.1723 2.88168 40.9475 3.02923 40.7188 3.17075C40.6298 3.22583 40.7116 3.36684 40.8011 3.31144Z" fill="#F6C200"/>
<path d="M40.8011 3.31144L41.3274 4.16171L41.3274 4.1617L40.8011 3.31144ZM43.0282 1.73067L42.4273 0.931384L42.4272 0.93139L43.0282 1.73067ZM43.6021 1.30621L44.1874 2.11705L44.1875 2.11701L43.6021 1.30621ZM43.6314 1.19475L42.7682 1.69962L42.7682 1.69964L43.6314 1.19475ZM43.5199 1.16553L44.1052 1.97636L44.1052 1.97635L43.5199 1.16553ZM41.3939 2.72942L40.8276 1.90522L40.8276 1.90522L41.3939 2.72942ZM40.7188 3.17075L41.2451 4.02109L41.2452 4.02102L40.7188 3.17075ZM40.8011 3.31144L41.3274 4.1617C42.1496 3.65273 42.9139 3.06775 43.6292 2.52994L43.0282 1.73067L42.4272 0.93139C41.6866 1.48827 41.003 2.01033 40.2747 2.46117L40.8011 3.31144ZM43.0282 1.73067L43.6292 2.52995C43.8175 2.38834 44.0023 2.25067 44.1874 2.11705L43.6021 1.30621L43.0169 0.495373C42.8161 0.640287 42.6193 0.787 42.4273 0.931384L43.0282 1.73067ZM43.6021 1.30621L44.1875 2.11701C44.5176 1.87865 44.8485 1.295 44.4945 0.689862L43.6314 1.19475L42.7682 1.69964C42.6339 1.47013 42.6112 1.20416 42.6805 0.971123C42.7449 0.754492 42.8775 0.596004 43.0168 0.495406L43.6021 1.30621ZM43.6314 1.19475L44.4946 0.68989C44.3387 0.423358 44.0949 0.266195 43.8646 0.198181C43.6271 0.12807 43.2643 0.116705 42.9346 0.354704L43.5199 1.16553L44.1052 1.97635C43.8114 2.18846 43.494 2.17412 43.2982 2.1163C43.1095 2.06057 42.9035 1.93097 42.7682 1.69962L43.6314 1.19475ZM43.5199 1.16553L42.9346 0.354697C42.1496 0.921353 41.5579 1.40344 40.8276 1.90522L41.3939 2.72942L41.9602 3.55363C42.6808 3.05852 43.4634 2.43965 44.1052 1.97636L43.5199 1.16553ZM41.3939 2.72942L40.8276 1.90522C40.6176 2.0495 40.4061 2.18824 40.1925 2.32049L40.7188 3.17075L41.2452 4.02102C41.4888 3.87023 41.7269 3.71387 41.9602 3.55363L41.3939 2.72942ZM40.7188 3.17075L40.1926 2.32042C39.9291 2.48346 39.7485 2.74926 39.696 3.05433C39.6479 3.33434 39.7158 3.59144 39.8287 3.78556C39.9413 3.97893 40.1367 4.17421 40.4215 4.2692C40.7346 4.37362 41.0642 4.32464 41.3274 4.16171L40.8011 3.31144L40.2747 2.46116C40.4932 2.32593 40.7789 2.2801 41.0543 2.37194C41.3014 2.45435 41.4652 2.62133 41.5573 2.77949C41.6498 2.9384 41.7083 3.15339 41.6671 3.39319C41.6216 3.65807 41.464 3.88559 41.2451 4.02109L40.7188 3.17075Z" fill="#F6C200" mask="url(#path-28-inside-14_4_48)"/>
<mask id="path-30-inside-15_4_48" fill="white">
<path d="M40.9542 3.59755C41.4016 3.59294 41.8489 3.57707 42.2963 3.56731C42.4058 3.56493 42.5153 3.56274 42.6248 3.56162C42.7296 3.56053 42.7298 3.3976 42.6248 3.39869C42.1774 3.4033 41.73 3.41917 41.2827 3.42893C41.1732 3.43131 41.0637 3.43349 40.9542 3.43462C40.8494 3.4357 40.8491 3.59863 40.9542 3.59755Z"/>
</mask>
<path d="M40.9542 3.59755C41.4016 3.59294 41.8489 3.57707 42.2963 3.56731C42.4058 3.56493 42.5153 3.56274 42.6248 3.56162C42.7296 3.56053 42.7298 3.3976 42.6248 3.39869C42.1774 3.4033 41.73 3.41917 41.2827 3.42893C41.1732 3.43131 41.0637 3.43349 40.9542 3.43462C40.8494 3.4357 40.8491 3.59863 40.9542 3.59755Z" fill="#F6C200"/>
<path d="M40.9542 3.59755L40.9439 2.5976L40.9439 2.5976L40.9542 3.59755ZM42.2963 3.56731L42.2745 2.56755L42.2745 2.56755L42.2963 3.56731ZM42.6248 3.56162L42.6351 4.56156L42.6351 4.56156L42.6248 3.56162ZM42.6248 3.39869L42.6351 4.39863L42.6351 4.39863L42.6248 3.39869ZM41.2827 3.42893L41.3045 4.42869L41.3045 4.42869L41.2827 3.42893ZM40.9542 3.43462L40.9439 2.43467L40.9438 2.43467L40.9542 3.43462ZM40.9542 3.59755L40.9645 4.5975C41.4178 4.59283 41.8908 4.5764 42.3181 4.56707L42.2963 3.56731L42.2745 2.56755C41.8071 2.57775 41.3855 2.59305 40.9439 2.5976L40.9542 3.59755ZM42.2963 3.56731L42.318 4.56707C42.4268 4.56471 42.5316 4.56263 42.6351 4.56156L42.6248 3.56162L42.6145 2.56167C42.499 2.56286 42.3848 2.56515 42.2745 2.56755L42.2963 3.56731ZM42.6248 3.56162L42.6351 4.56156C42.9451 4.55836 43.2408 4.42391 43.4452 4.18375C43.6324 3.9639 43.7033 3.70458 43.7035 3.48016C43.7037 3.25611 43.6332 2.99222 43.4398 2.76893C43.2278 2.5241 42.9243 2.39555 42.6145 2.39874L42.6248 3.39869L42.6351 4.39863C42.3778 4.40129 42.1137 4.29269 41.9279 4.07814C41.7607 3.88513 41.7033 3.66184 41.7035 3.47852C41.7036 3.29483 41.7614 3.07638 41.9223 2.88735C42.1005 2.67801 42.3569 2.56433 42.6145 2.56167L42.6248 3.56162ZM42.6248 3.39869L42.6145 2.39874C42.1612 2.40341 41.6882 2.41984 41.2609 2.42916L41.2827 3.42893L41.3045 4.42869C41.7719 4.41849 42.1935 4.40318 42.6351 4.39863L42.6248 3.39869ZM41.2827 3.42893L41.2609 2.42916C41.1522 2.43153 41.0474 2.43361 40.9439 2.43467L40.9542 3.43462L40.9645 4.43457C41.08 4.43338 41.1942 4.43109 41.3045 4.42869L41.2827 3.42893ZM40.9542 3.43462L40.9438 2.43467C40.6339 2.43788 40.3382 2.5723 40.1338 2.81246C39.9466 3.0323 39.8757 3.29164 39.8755 3.51607C39.8753 3.74015 39.9458 4.00405 40.1392 4.22734C40.3512 4.47216 40.6547 4.60069 40.9645 4.5975L40.9542 3.59755L40.9439 2.5976C41.2011 2.59495 41.4653 2.70352 41.6511 2.91806C41.8182 3.11108 41.8756 3.33438 41.8755 3.51772C41.8753 3.70142 41.8176 3.91989 41.6566 4.10892C41.4784 4.31825 41.2221 4.4319 40.9645 4.43457L40.9542 3.43462Z" fill="#F6C200" mask="url(#path-30-inside-15_4_48)"/>
<path d="M0.666667 8C0.666667 8.73638 1.26362 9.33333 2 9.33333C2.73638 9.33333 3.33333 8.73638 3.33333 8C3.33333 7.26362 2.73638 6.66667 2 6.66667C1.26362 6.66667 0.666667 7.26362 0.666667 8ZM2 8V8.25H26V8V7.75H2V8Z" fill="#F6C200"/>
<path d="M70.3796 8C70.3796 8.73638 70.9765 9.33333 71.7129 9.33333C72.4493 9.33333 73.0462 8.73638 73.0462 8C73.0462 7.26362 72.4493 6.66667 71.7129 6.66667C70.9765 6.66667 70.3796 7.26362 70.3796 8ZM47.7129 8V8.25H71.7129V8V7.75H47.7129V8Z" fill="#F6C200"/>
</svg>
