<svg xmlns="http://www.w3.org/2000/svg" width="54" height="33" viewBox="0 0 54 33" fill="none">
  <path d="M26.8856 28.1114C30.0808 25.1684 32.0989 20.9641 32.0989 16.3394C32.0989 11.6306 30.0808 7.42636 26.8856 4.56745C24.0267 2.04489 20.3269 0.447266 16.2067 0.447266C7.37773 0.447266 0.230469 7.59453 0.230469 16.3394C0.230469 25.1684 7.37773 32.3156 16.2067 32.3156C20.3269 32.2316 24.0267 30.6339 26.8856 28.1114Z" fill="#3362AB"/>
  <path d="M26.8877 28.1103C30.0829 25.1673 32.101 20.9631 32.101 16.3384C32.101 11.6296 30.0829 7.42531 26.8877 4.56641" fill="#3362AB"/>
  <path d="M26.8877 28.1103C30.0829 25.1673 32.101 20.9631 32.101 16.3384C32.101 11.6296 30.0829 7.42531 26.8877 4.56641" stroke="#3362AB" stroke-width="0.260413"/>
  <path d="M37.5618 0.361328C33.4416 0.361328 29.6577 1.95895 26.8829 4.48151C26.2943 4.98602 25.7898 5.57462 25.2853 6.16322H28.4805C28.901 6.66773 29.3214 7.25633 29.6577 7.84493H24.024C23.6877 8.34944 23.3513 8.93804 23.0991 9.52664H30.5827C30.8349 10.1152 31.0872 10.6197 31.2554 11.2083H22.4264C22.2582 11.7969 22.09 12.3015 21.9219 12.8901H31.6758C31.928 13.9832 32.0121 15.0763 32.0121 16.2535C32.0121 18.0193 31.7599 19.701 31.1713 21.2986H22.3423C22.5105 21.8872 22.7627 22.4758 23.015 22.9803H30.4986C30.2463 23.5689 29.91 24.1575 29.5737 24.662H23.9399C24.2763 25.2506 24.6967 25.8392 25.1171 26.3437H28.3124C27.8079 26.9323 27.3033 27.5209 26.7147 28.0254C29.5736 30.548 33.2734 32.1456 37.3936 32.1456C46.2226 32.1456 53.2857 24.9984 53.2857 16.1694C53.538 7.50859 46.3907 0.361328 37.5618 0.361328Z" fill="#C9191B"/>
  <path d="M14.188 20.205H12.17L13.3472 13.9827L10.6565 20.205H8.89066L8.55432 14.0668L7.3771 20.205H5.61133L7.12486 12.1328H10.236L10.4042 17.1779L12.5904 12.1328H15.7856L14.188 20.205Z" fill="white"/>
  <path d="M36.3864 20.2069C35.8819 20.375 35.3774 20.4591 34.957 20.4591C33.948 20.4591 33.3594 19.9546 33.3594 19.0297C33.3594 18.8615 33.3594 18.6093 33.4434 18.4411L33.5275 17.7684L33.6116 17.2639L34.5366 12.2188H36.4705L36.2183 13.7323H37.2273L36.975 15.3299H35.966L35.4615 18.1047C35.4615 18.1888 35.4615 18.357 35.4615 18.357C35.4615 18.6933 35.7138 18.8615 36.1342 18.8615C36.3864 18.8615 36.5546 18.8615 36.6387 18.7774L36.3864 20.2069Z" fill="white"/>
  <path d="M42.1008 13.7306C41.9326 13.6465 41.9326 13.6465 41.8485 13.6465C41.7644 13.6465 41.6804 13.6465 41.6804 13.6465C41.5963 13.6465 41.5122 13.6465 41.4281 13.6465C40.7554 13.6465 40.335 13.8987 39.6623 14.7396L39.8305 13.7306H38.2329L37.0557 20.2892H39.0737C39.7464 16.2531 40.0827 15.5804 41.0077 15.5804C41.0917 15.5804 41.1759 15.5804 41.2599 15.5804L41.5122 15.6645L42.1008 13.7306Z" fill="white"/>
  <path d="M28.4843 15.7468C28.4843 16.5876 28.9888 17.1762 29.9979 17.5967C30.8387 17.933 30.9228 18.0171 30.9228 18.3534C30.9228 18.7738 30.5864 18.942 29.7456 18.942C29.157 18.942 28.5684 18.8579 27.9798 18.6898L27.7275 20.2033H27.8116L28.148 20.2874C28.2321 20.2874 28.4843 20.3715 28.6525 20.3715C29.157 20.3715 29.4933 20.4555 29.7456 20.4555C31.8477 20.4555 32.8568 19.7829 32.8568 18.2693C32.8568 17.3444 32.4363 16.8399 31.4273 16.4194C30.5864 16.0831 30.5023 15.999 30.5023 15.6627C30.5023 15.3263 30.8387 15.1582 31.5114 15.1582C31.9318 15.1582 32.4363 15.1582 32.9408 15.2423L33.1931 13.7287C32.6886 13.6446 31.9318 13.5605 31.4273 13.5605C29.2411 13.5605 28.4843 14.5696 28.4843 15.7468Z" fill="white"/>
  <path d="M19.2324 17.3444C18.9801 17.3444 18.896 17.3444 18.812 17.3444C17.7188 17.3444 17.1302 17.6807 17.1302 18.3534C17.1302 18.7738 17.3825 19.0261 17.8029 19.0261C18.5597 18.942 19.1483 18.2693 19.2324 17.3444ZM20.6618 20.2033H18.9801L19.0642 19.5306C18.5597 20.0351 17.887 20.2874 16.9621 20.2874C15.869 20.2874 15.1963 19.5306 15.1963 18.5216C15.1963 16.924 16.4576 15.999 18.6438 15.999C18.8961 15.999 19.1483 15.999 19.4847 16.0831C19.5687 15.8309 19.5687 15.7468 19.5687 15.6627C19.5687 15.2423 19.2324 15.0741 18.3074 15.0741C17.7188 15.0741 17.1302 15.1582 16.7098 15.2423L16.4576 15.3263L16.2894 15.4104L16.5417 13.8969C17.5507 13.6446 18.1393 13.5605 18.896 13.5605C20.5778 13.5605 21.5027 14.2332 21.5027 15.4945C21.5027 15.8309 21.5027 16.0831 21.3345 16.7558L20.9141 19.1102L20.83 19.5306L20.7459 19.867V20.1192L20.6618 20.2033Z" fill="white"/>
  <path d="M26.1293 16.1712C26.1293 16.003 26.1293 15.9189 26.1293 15.8349C26.1293 15.3304 25.7929 14.994 25.2043 14.994C24.5317 14.994 24.1112 15.4144 23.9431 16.1712H26.1293ZM27.1383 20.1232C26.4656 20.2914 25.7929 20.3755 25.1203 20.3755C22.934 20.3755 21.7568 19.3665 21.7568 17.4325C21.7568 15.1622 23.1863 13.4805 25.2043 13.4805C26.802 13.4805 27.8951 14.4054 27.8951 15.8349C27.8951 16.3394 27.811 16.7598 27.6428 17.4325H23.6908C23.6908 17.5166 23.6908 17.6007 23.6908 17.6007C23.6908 18.3574 24.2794 18.7779 25.4566 18.7779C26.1293 18.7779 26.802 18.6097 27.5587 18.3574L27.1383 20.1232Z" fill="white"/>
  <path d="M46.2236 16.4194C46.2236 15.7468 45.9714 15.0741 45.1305 15.0741C44.1215 15.0741 43.5329 16.2513 43.5329 17.3444C43.5329 18.2693 43.9533 18.8579 44.7101 18.8579C45.1305 18.8579 46.0555 18.2693 46.2236 17.2603C46.2236 17.008 46.2236 16.6717 46.2236 16.4194ZM48.3258 17.2603C47.9894 19.4465 46.4759 20.4555 44.4578 20.4555C42.1875 20.4555 41.3467 19.1102 41.3467 17.4285C41.3467 15.0741 42.8602 13.5605 45.2146 13.5605C47.3167 13.5605 48.3258 14.8218 48.3258 16.5035C48.4098 16.8399 48.4098 16.8399 48.3258 17.2603Z" fill="white"/>
</svg>