<svg xmlns="http://www.w3.org/2000/svg" width="55" height="34" viewBox="0 0 55 34" fill="none">
  <path d="M54.9486 17.3381C54.9486 26.3352 47.6332 33.7347 38.5519 33.7347C29.5548 33.7347 22.1553 26.3352 22.1553 17.3381C22.1553 8.34092 29.4707 0.941406 38.4678 0.941406C47.6332 0.941406 54.9486 8.34092 54.9486 17.3381Z" fill="#F9B50B"/>
  <path d="M33.0012 17.4222C33.0012 16.245 32.8331 15.0678 32.6649 13.9746H22.5746C22.6587 13.3861 22.8269 12.8815 22.9951 12.2089H31.9922C31.824 11.6203 31.5718 11.0317 31.3195 10.4431H23.6677C23.92 9.85446 24.2563 9.34995 24.5927 8.67727H30.3946C30.0582 8.08867 29.6378 7.50007 29.1333 6.91147H25.938C26.4426 6.32287 26.9471 5.81836 27.6198 5.22976C24.7609 2.53903 20.8929 0.941406 16.6046 0.941406C7.69151 1.19366 0.291992 8.34092 0.291992 17.3381C0.291992 26.3352 7.60742 33.7347 16.6887 33.7347C20.977 33.7347 24.7609 32.053 27.7038 29.4464C28.2924 28.9419 28.797 28.3533 29.3856 27.6806H26.0221C25.6017 27.1761 25.1813 26.5875 24.8449 25.9989H30.5627C30.8991 25.4944 31.2354 24.9058 31.4877 24.2331H23.8359C23.5837 23.7286 23.3314 23.14 23.1632 22.4673H32.1604C32.6649 20.9537 33.0012 19.272 33.0012 17.4222Z" fill="#C8191C"/>
  <path d="M22.4894 21.5404L22.7416 20.0269C22.6575 20.0269 22.4894 20.111 22.3212 20.111C21.7326 20.111 21.6485 19.7747 21.7326 19.6065L22.2371 16.5794H23.162L23.4143 14.8977H22.5734L22.7416 13.8887H20.9758C20.9758 13.8887 19.9668 19.6065 19.9668 20.2792C19.9668 21.2882 20.5554 21.7927 21.3962 21.7927C21.9008 21.7927 22.3212 21.6245 22.4894 21.5404Z" fill="white"/>
  <path d="M23.0811 18.7692C23.0811 21.2077 24.7628 21.7963 26.1081 21.7963C27.3694 21.7963 27.958 21.544 27.958 21.544L28.2944 19.8623C28.2944 19.8623 27.3694 20.2828 26.4445 20.2828C24.5105 20.2828 24.8468 18.8533 24.8468 18.8533H28.3784C28.3784 18.8533 28.6307 17.7602 28.6307 17.2557C28.6307 16.1626 28.0421 14.7331 26.1081 14.7331C24.4264 14.649 23.0811 16.583 23.0811 18.7692ZM26.1081 16.2467C27.0331 16.2467 26.8649 17.3398 26.8649 17.4238H24.9309C25.015 17.3398 25.1832 16.2467 26.1081 16.2467Z" fill="white"/>
  <path d="M37.1229 21.5415L37.4593 19.6075C37.4593 19.6075 36.6184 20.0279 35.9458 20.0279C34.7686 20.0279 34.18 19.103 34.18 18.0099C34.18 15.9077 35.189 14.8146 36.4503 14.8146C37.2911 14.8146 38.0479 15.3191 38.0479 15.3191L38.3001 13.4693C38.3001 13.4693 37.2911 13.0488 36.2821 13.0488C34.264 13.0488 32.3301 14.8146 32.3301 18.094C32.3301 20.2802 33.3391 21.7096 35.4412 21.7096C36.198 21.7937 37.1229 21.5415 37.1229 21.5415Z" fill="white"/>
  <path d="M12.9922 14.6465C11.815 14.6465 10.8901 14.9828 10.8901 14.9828L10.6378 16.4964C10.6378 16.4964 11.3946 16.16 12.5718 16.16C13.1604 16.16 13.6649 16.2441 13.6649 16.7486C13.6649 17.085 13.5808 17.169 13.5808 17.169H12.8241C11.3105 17.169 9.71289 17.7576 9.71289 19.7757C9.71289 21.3733 10.7219 21.7097 11.3946 21.7097C12.5718 21.7097 13.1604 20.9529 13.2445 20.9529L13.1604 21.6256H14.5898L15.2625 16.8327C15.2625 14.7306 13.5808 14.6465 12.9922 14.6465ZM13.3286 18.5144C13.3286 18.7667 13.1604 20.1961 12.1514 20.1961C11.6469 20.1961 11.4787 19.7757 11.4787 19.5234C11.4787 19.103 11.7309 18.5144 13.0763 18.5144C13.2445 18.5144 13.3286 18.5144 13.3286 18.5144Z" fill="white"/>
  <path d="M16.9381 21.7098C17.3585 21.7098 19.5447 21.7938 19.5447 19.4395C19.5447 17.2532 17.4426 17.6737 17.4426 16.8328C17.4426 16.4124 17.7789 16.2442 18.3675 16.2442C18.6198 16.2442 19.5447 16.3283 19.5447 16.3283L19.797 14.7307C19.797 14.7307 19.2084 14.5625 18.1153 14.5625C16.854 14.5625 15.5086 15.067 15.5086 16.8328C15.5086 18.8509 17.6948 18.6827 17.6948 19.4395C17.6948 19.944 17.1062 20.0281 16.6858 20.0281C15.929 20.0281 15.0882 19.7758 15.0882 19.7758L14.8359 21.3734C15.0041 21.5416 15.5086 21.7098 16.9381 21.7098Z" fill="white"/>
  <path d="M51.5851 13.3008L51.2487 15.6552C51.2487 15.6552 50.576 14.8143 49.567 14.8143C47.9694 14.8143 46.624 16.7483 46.624 19.0186C46.624 20.448 47.2967 21.8775 48.8102 21.8775C49.8193 21.8775 50.492 21.2048 50.492 21.2048L50.4079 21.7934H52.1737L53.4349 13.469L51.5851 13.3008ZM50.7442 17.8414C50.7442 18.7663 50.3238 20.0276 49.3148 20.0276C48.7262 20.0276 48.3898 19.5231 48.3898 18.5982C48.3898 17.1687 48.9784 16.3279 49.8193 16.3279C50.4079 16.4119 50.7442 16.8324 50.7442 17.8414Z" fill="white"/>
  <path d="M3.4864 21.6252L4.49542 15.4029L4.66359 21.6252H5.84079L8.11109 15.4029L7.18615 21.6252H9.03603L10.4655 13.3008H7.60658L5.84079 18.43L5.7567 13.3008H3.23414L1.80469 21.6252H3.4864Z" fill="white"/>
  <path d="M30.3959 21.6254C30.9004 18.7665 30.9845 16.4121 32.2458 16.8325C32.4139 15.7394 32.6662 15.2349 32.8344 14.8145H32.498C31.7412 14.8145 31.0686 15.8235 31.0686 15.8235L31.2367 14.8985H29.555L28.4619 21.6254H30.3959Z" fill="white"/>
  <path d="M41.1621 14.6465C39.9849 14.6465 39.06 14.9828 39.06 14.9828L38.8078 16.4964C38.8078 16.4964 39.5645 16.16 40.7417 16.16C41.3303 16.16 41.8348 16.2441 41.8348 16.7486C41.8348 17.085 41.7507 17.169 41.7507 17.169H40.994C39.4804 17.169 37.8828 17.7576 37.8828 19.7757C37.8828 21.3733 38.8918 21.7097 39.5645 21.7097C40.7417 21.7097 41.3303 20.9529 41.4144 20.9529L41.3303 21.6256H42.9279L43.6006 16.8327C43.6006 14.7306 41.7507 14.6465 41.1621 14.6465ZM41.5826 18.5144C41.5826 18.7667 41.4144 20.1961 40.4054 20.1961C39.9009 20.1961 39.7327 19.7757 39.7327 19.5234C39.7327 19.103 39.9849 18.5144 41.3303 18.5144C41.4985 18.5144 41.4985 18.5144 41.5826 18.5144Z" fill="white"/>
  <path d="M44.9398 21.6254C45.4443 18.7665 45.5284 16.4121 46.7897 16.8325C46.9579 15.7394 47.2101 15.2349 47.3783 14.8145H47.042C46.2852 14.8145 45.6125 15.8235 45.6125 15.8235L45.7807 14.8985H44.099L43.0059 21.6254H44.9398Z" fill="white"/>
</svg>