<svg width="100" height="100" viewBox="0 0 100 100" fill="none" xmlns="http://www.w3.org/2000/svg">
<circle cx="49.5" cy="49.5" r="48" stroke="#B9E2ED"/>
<path d="M82 7C81.4527 10.0453 79.0452 12.4526 76 13.0001C79.0452 13.5474 81.4527 15.955 82 19C82.5473 15.9547 84.9548 13.5474 88 13.0001C84.9548 12.4526 82.5473 10.0453 82 7Z" fill="#F2B10C"/>
<g clip-path="url(#clip0_4345_17639)">
<path d="M30.332 63.0639C27.351 58.619 25.9824 53.2224 26.4811 47.862C26.5832 46.6841 26.7891 45.4489 27.0911 44.2001C27.3687 43.1083 27.7163 42.057 28.1281 41.0698C29.306 38.1597 31.0466 35.5458 33.302 33.2989C35.246 31.3473 37.4676 29.7771 39.906 28.6321C41.0273 28.1039 42.1951 27.6626 43.378 27.3201C44.4614 27.0028 45.5431 26.7708 46.5944 26.629C46.6324 26.624 46.6695 26.6164 46.7058 26.6054C52.8145 25.7499 58.903 27.2602 63.8499 30.863C64.3342 31.214 64.8051 31.5835 65.2607 31.9691L63.4795 32.0645C63.0146 32.089 62.6569 32.4864 62.6822 32.9521C62.7067 33.4027 63.0796 33.7511 63.5242 33.7511C63.5394 33.7511 63.5546 33.7511 63.5707 33.7503L67.3414 33.5486C67.4224 33.5444 67.4983 33.5149 67.5742 33.487C67.5945 33.4803 67.6164 33.4795 67.6358 33.471C67.6924 33.4449 67.7388 33.4052 67.7886 33.3672C67.8299 33.3369 67.8738 33.3124 67.9084 33.2761C67.9134 33.271 67.921 33.2685 67.9261 33.2626C67.9522 33.2339 67.9624 33.196 67.9835 33.1639C68.0214 33.109 68.0594 33.0559 68.0839 32.9926C68.0991 32.9521 68.0999 32.9108 68.1092 32.8686C68.1218 32.8104 68.1446 32.7564 68.1446 32.6948C68.1446 32.6838 68.1387 32.6737 68.1379 32.6619C68.1379 32.656 68.1404 32.6509 68.1404 32.645L67.9252 28.8869C67.8991 28.422 67.4848 28.0643 67.0342 28.093C66.5693 28.12 66.2133 28.5182 66.2411 28.984L66.3373 30.6715C65.8538 30.2639 65.3569 29.8699 64.8439 29.4986C59.5164 25.6182 52.958 24.0041 46.3725 24.9491C46.3387 24.9542 46.3058 24.961 46.2729 24.9702C45.1693 25.1238 44.0378 25.3693 42.9089 25.7001C41.6433 26.0671 40.392 26.5396 39.1913 27.1049C36.5749 28.3326 34.1921 30.0159 32.1106 32.1058C29.6966 34.5122 27.8311 37.3143 26.5705 40.4286C26.1309 41.4841 25.7572 42.613 25.4576 43.7943C25.1328 45.135 24.9126 46.4546 24.8046 47.711C24.2713 53.4519 25.7377 59.2375 28.9356 64.0038C29.0976 64.2468 29.365 64.3776 29.6367 64.3776C29.7979 64.3776 29.9616 64.3312 30.1058 64.235C30.4931 63.9751 30.5961 63.4511 30.3362 63.0639H30.332Z" fill="#4A7076"/>
<path d="M69.8985 35.7648C69.5112 36.0247 69.4083 36.5486 69.6681 36.9359C72.6491 41.3808 74.0177 46.7774 73.519 52.1377C73.4169 53.3156 73.211 54.5509 72.909 55.7996C72.6314 56.8914 72.2838 57.9427 71.872 58.9299C70.6941 61.84 68.9535 64.454 66.6981 66.7009C64.7541 68.6525 62.5325 70.2227 60.0941 71.3676C58.9728 71.8958 57.805 72.3371 56.6221 72.6797C55.5387 72.9969 54.457 73.229 53.4057 73.3707C53.3677 73.3758 53.3306 73.3834 53.2943 73.3943C47.183 74.2474 41.0971 72.7396 36.1502 69.1368C35.6583 68.7807 35.1908 68.412 34.7386 68.0298L36.5206 67.9311C36.9863 67.9049 37.3432 67.5075 37.3162 67.0417C37.2909 66.5768 36.8834 66.2149 36.4278 66.2461L32.6621 66.4545C32.1964 66.4806 31.8394 66.8781 31.8664 67.3438L32.074 71.1095C32.0985 71.5592 32.4706 71.9068 32.9152 71.9068C32.9313 71.9068 32.9464 71.9068 32.9625 71.906C33.4282 71.8807 33.7851 71.4824 33.7581 71.0167L33.6653 69.3317C34.1446 69.7358 34.6382 70.1265 35.1579 70.5028C39.4914 73.6584 44.6383 75.3164 49.9505 75.3164C51.1698 75.3164 52.3991 75.2287 53.6284 75.0523C53.6622 75.0472 53.6951 75.0405 53.728 75.0312C54.8316 74.8776 55.9631 74.6321 57.092 74.3014C58.3577 73.9343 59.6089 73.4618 60.8096 72.8965C63.4261 71.6689 65.8088 69.9856 67.8904 67.8956C70.3043 65.4892 72.1699 62.6871 73.4304 59.5729C73.87 58.5173 74.2438 57.3884 74.5433 56.2071C74.8682 54.8664 75.0884 53.5468 75.1964 52.2905C75.7296 46.5496 74.2632 40.764 71.0654 35.9977C70.8064 35.6104 70.2815 35.5057 69.8951 35.7673L69.8985 35.7648Z" fill="#4A7076"/>
<path d="M62.6108 63.1698L60.1757 40.0253C60.1468 39.752 59.9163 39.5443 59.6414 39.5443C58.6765 39.5395 56.6812 39.5478 55.7088 39.5443L55.7088 38.4255C55.779 35.3603 52.5974 32.994 49.6444 33.865C46.68 32.9828 43.5192 35.3365 43.5709 38.4276L43.5708 39.5443H41.5028C41.2332 39.5443 41.0053 39.7442 40.9702 40.0117L37.9389 63.1562C37.8926 63.4666 38.1557 63.7709 38.4716 63.763L62.0716 63.763C62.3772 63.7761 62.654 63.4744 62.6108 63.1698ZM57.9551 60.1647L56.6788 61.638L57.6232 49.751L57.9551 60.1647ZM53.5516 35.8364C54.25 36.5288 54.6345 37.4483 54.6345 38.4255V39.5443H53.1346V38.4276C53.1346 36.9754 52.4718 35.6751 51.4321 34.8043C52.2277 34.9121 52.9745 35.2646 53.5516 35.8364ZM49.6412 34.9916C51.0513 35.5113 52.0604 36.8533 52.0604 38.4276V39.5443H47.2242V38.4255C47.2242 36.885 48.191 35.5295 49.6412 34.9916ZM44.645 38.4276C44.645 36.5731 46.0438 35.0395 47.8514 34.796C46.7939 35.6788 46.1499 36.9918 46.1499 38.4255V39.5443H44.645V38.4276ZM41.9741 40.6185H43.5708V43.1594C43.5848 43.8672 44.6324 43.8644 44.645 43.1594V40.6185H52.0604V43.1594C52.0708 43.8657 53.124 43.8646 53.1346 43.1594V40.6185H57.2711L55.5176 62.6888H39.0837L41.9741 40.6185ZM57.1898 62.6888L58.5659 61.1L60.5478 62.6888H57.1898ZM59.0275 60.0934L58.407 40.6185H59.1578L61.4075 62.0011L59.0275 60.0934Z" fill="#4A7076"/>
<path d="M54.8088 51.1615C54.8 51.0588 54.7462 50.9646 54.69 50.8799L52.2788 47.9588C52.1767 47.835 52.0249 47.7637 51.8646 47.7637H45.7861C45.6258 47.7637 45.474 47.835 45.372 47.9588L42.9607 50.8799C42.8055 51.0758 42.8019 51.3548 42.9518 51.5529L48.4022 58.515C48.6314 58.7796 49.0185 58.7841 49.2483 58.515L54.6989 51.5529C54.7778 51.4411 54.8236 51.3005 54.8088 51.1615ZM46.6498 51.759L47.6831 55.8539L44.4774 51.759H46.6498ZM47.7579 51.759H49.8928L48.8252 55.9889L47.7579 51.759ZM51.0009 51.759H53.1732L49.9674 55.8538L51.0009 51.759ZM53.1361 50.6848H50.9952L50.5037 48.8379H51.6115L53.1361 50.6848ZM49.3922 48.8379L49.8837 50.6848H47.767L48.2585 48.8379H49.3922ZM46.0392 48.8379H47.147L46.6555 50.6848H44.5146L46.0392 48.8379Z" fill="#4A7076"/>
</g>
<defs>
<clipPath id="clip0_4345_17639">
<rect width="52" height="52" fill="white" transform="translate(24 24)"/>
</clipPath>
</defs>
</svg>
