<svg xmlns="http://www.w3.org/2000/svg" width="95" height="25" viewBox="0 0 95 25" fill="none">
  <path fill-rule="evenodd" clip-rule="evenodd" d="M65.2568 6.72065H70.1663V14.2856L74.4133 6.72065H78.9189L69.8349 22.0147C69.8349 22.0147 68.9916 23.2975 67.9457 23.9761C67.0864 24.5342 66.0297 24.5089 65.7068 24.5317C63.9125 24.5165 61.748 24.5118 61.748 24.5118L62.7921 20.8661L64.4816 20.8632C64.4816 20.8632 65.2549 20.7867 65.5536 20.4169C65.8381 20.0645 65.9836 19.712 65.9836 19.1951C65.9836 18.4202 65.2568 6.72029 65.2568 6.72029V6.72065ZM14.2426 8.23148C13.5593 9.76684 11.4406 9.59224 11.4406 9.59224L8.97378 9.58105L9.8743 6.3296C9.8743 6.3296 12.0811 6.33754 13.1636 6.33754C14.3222 6.33754 14.6841 7.24014 14.243 8.23112L14.2426 8.23148ZM19.8492 6.01575C20.2691 2.78955 17.3418 1.97497 14.1768 1.97497H5.85971L0.950195 19.3289H6.23502L7.88505 13.4368L10.8496 13.4602C10.8496 13.4602 12.073 13.3913 12.0971 14.5057C12.1228 15.6943 11.1888 17.8769 11.2491 19.3289H16.6782L16.6663 18.8668C16.6663 18.8668 16.2151 18.7506 16.2653 18.1359C16.2862 17.8801 16.5774 17.0706 16.9587 15.979C17.1885 15.4977 17.5352 14.356 17.5032 13.4263C17.4634 12.2658 16.7124 11.7272 15.6297 11.3505C19.0048 10.5829 19.8484 6.01611 19.8488 6.01611L19.8492 6.01575ZM21.0484 6.72065H25.8686L23.8835 14.128C23.8835 14.128 23.3884 15.7798 24.9815 15.9072C26.2402 16.0082 27.1768 14.5515 27.4837 13.5648C27.8869 12.269 29.4536 6.72029 29.4536 6.72029H34.4197L30.6409 19.3286H26.3049L26.8376 17.5273C26.8376 17.5273 24.6255 20.1435 21.3389 19.8296C18.4175 19.5515 18.1657 17.4963 18.6719 14.9324C18.9204 13.6738 21.0484 6.72065 21.0484 6.72065ZM45.805 8.27116C45.1173 10.1319 43.2221 9.91258 43.2221 9.91258L40.6348 9.9133L41.6562 6.22642C41.6562 6.22642 43.2939 6.23472 44.3756 6.23472C45.6998 6.23472 46.1803 7.25493 45.805 8.2708V8.27116ZM51.239 6.54821C51.6593 3.32165 49.1237 1.97461 45.9583 1.97461H37.6416L32.7324 19.3286H38.0173L39.5033 13.9782L43.7139 14.0031C43.7139 14.0031 50.2343 14.2708 51.2394 6.54821H51.239ZM55.6821 16.76C54.8563 16.9631 53.855 17.0735 53.6564 16.3459C53.1111 14.352 57.9243 13.7683 57.9243 13.7683C57.957 15.585 56.3155 16.6034 55.6817 16.76H55.6821ZM62.9632 13.1106C63.5982 11.0132 64.4009 9.0273 63.7548 7.92665C62.7654 6.24194 60.977 6.09403 58.3606 6.09403C55.4701 6.09403 51.9015 6.6265 50.7384 10.3545H55.5504C55.5504 10.3545 55.989 8.95046 57.7952 9.03884C59.3939 9.11713 59.3065 10.1839 58.7173 10.7737C57.684 11.8072 54.8303 11.234 51.6697 12.2975C48.9083 13.2268 47.9419 16.7485 48.5419 18.1539C49.1233 19.5169 50.2061 19.6904 51.6668 19.8296C54.0127 20.0533 55.8115 18.7845 56.6488 18.0399C56.6488 18.8668 56.6711 19.3286 56.6711 19.3286H61.735L61.7227 18.8664C61.7227 18.8664 61.2716 18.7503 61.3218 18.1355C61.3582 17.6853 62.2331 15.5194 62.9629 13.1106H62.9632Z" fill="#382A8D"/>
  <path fill-rule="evenodd" clip-rule="evenodd" d="M85.2181 3.80859L79.5498 22.9324L90.1596 13.3703L85.2181 3.80859Z" fill="#1D8546"/>
  <path fill-rule="evenodd" clip-rule="evenodd" d="M81.5863 3.80859L75.918 22.9324L86.5282 13.3703L81.5863 3.80859Z" fill="#EC6B00"/>
  <path fill-rule="evenodd" clip-rule="evenodd" d="M92.137 0.334797C91.0598 0.334797 90.1827 1.18509 90.1827 2.23018C90.1827 3.27492 91.0594 4.12521 92.137 4.12521C93.2142 4.12521 94.0909 3.27492 94.0909 2.23018C94.0909 1.18473 93.2142 0.334797 92.137 0.334797ZM92.1068 3.0076V1.53033H92.4107L92.7708 2.57614C92.8043 2.67355 92.8281 2.74642 92.8441 2.79476C92.8612 2.74101 92.888 2.662 92.9251 2.55775L93.2897 1.53033H93.5605V3.0076H93.3663V1.77095L92.9237 3.0076H92.7421L92.3014 1.75002V3.0076H92.1068ZM91.0947 3.0076V1.70493H90.5933V1.53069H91.8003V1.70493H91.2967V3.0076H91.0947ZM92.137 4.3128C90.9523 4.3128 89.9893 3.37846 89.9893 2.22982C89.9893 1.08119 90.9526 0.146484 92.137 0.146484C93.3209 0.146484 94.2847 1.08119 94.2847 2.22982C94.2847 3.37809 93.3209 4.3128 92.137 4.3128Z" fill="black"/>
</svg>