<svg xmlns="http://www.w3.org/2000/svg" width="59" height="19" viewBox="0 0 59 19" fill="none">
  <path d="M54.3622 0.761719H50.7466C49.6535 0.761719 48.8126 1.09806 48.3081 2.19117L41.4131 17.9151H46.29C46.29 17.9151 47.1309 15.813 47.2991 15.3085C47.8036 15.3085 52.5964 15.3085 53.2691 15.3085C53.4373 15.8971 53.8577 17.8311 53.8577 17.8311H58.2302L54.3622 0.761719ZM48.6444 11.7769C49.0649 10.7679 50.4943 6.98404 50.4943 6.98404C50.4943 7.06813 50.9147 5.97502 51.0829 5.38642L51.4193 6.89996C51.4193 6.89996 52.3442 11.0201 52.5124 11.861H48.6444V11.7769Z" fill="#3362AB"/>
  <path d="M41.7475 12.2817C41.7475 15.8133 38.5523 18.1677 33.5912 18.1677C31.4891 18.1677 29.471 17.7473 28.3779 17.2428L29.0506 13.3748L29.6392 13.6271C31.1527 14.2998 32.1618 14.552 34.0117 14.552C35.357 14.552 36.7865 14.0475 36.7865 12.8703C36.7865 12.1136 36.1979 11.609 34.348 10.7682C32.5822 9.92733 30.2278 8.58197 30.2278 6.14349C30.2278 2.78007 33.5071 0.509766 38.1318 0.509766C39.8976 0.509766 41.4112 0.846107 42.3361 1.26653L41.6634 4.96629L41.3271 4.62995C40.4862 4.29361 39.3931 3.95727 37.7955 3.95727C36.0297 4.04135 35.1888 4.79812 35.1888 5.47081C35.1888 6.22758 36.1979 6.81617 37.7955 7.57294C40.4862 8.83422 41.7475 10.2637 41.7475 12.2817Z" fill="#3362AB"/>
  <path d="M0.71582 0.932045L0.799906 0.595703H8.03125C9.04028 0.595703 9.79705 0.932045 10.0493 2.02516L11.6469 9.59284C10.0493 5.55674 6.34954 2.27741 0.71582 0.932045Z" fill="#F9B50B"/>
  <path d="M21.8225 0.76182L14.5071 17.8312H9.54607L5.3418 3.53664C8.36887 5.4706 10.8914 8.49768 11.8164 10.5998L12.3209 12.3656L16.8615 0.677734H21.8225V0.76182Z" fill="#3362AB"/>
  <path d="M23.7555 0.677734H28.3802L25.4372 17.8312H20.8125L23.7555 0.677734Z" fill="#3362AB"/>
</svg>